<svg width="192" height="262" version="1.1" xmlns="http://www.w3.org/2000/svg" desc="Created with imagetracer.js version 1.2.6" ><path fill="rgb(0,0,0)" stroke="rgb(0,0,0)" stroke-width="1" opacity="0" d="M 0 0 L 192 0 L 192 262 L 0 262 L 0 0 Z M 8 54 Q 8 84 23 101 L 31 107 L 34 108 L 34 112 L 30 122 L 28 133 L 28 146 L 23 164 L 23 176 L 29 188 Q 40 200 56 207 L 75 213 L 87 214 L 88 215 L 105 215 L 126 211 Q 143 206 155 196 Q 165 189 169 176 L 169 164 L 164 146 L 163 127 L 158 108 L 167 103 Q 184 87 184 54 L 174 54 L 164 56 Q 150 60 141 67 L 128 82 L 105 77 L 81 78 L 69 81 L 66 83 L 61 77 Q 45 54 8 54 Z " /><path fill="rgb(205,31,50)" stroke="rgb(205,31,50)" stroke-width="1" opacity="0.996078431372549" d="M 66.5 140 L 65.5 142 L 66.5 140 Z " /><path fill="rgb(205,31,50)" stroke="rgb(205,31,50)" stroke-width="1" opacity="0.996078431372549" d="M 125.5 140 L 126.5 142 L 125.5 140 Z " /><path fill="rgb(205,31,50)" stroke="rgb(205,31,50)" stroke-width="1" opacity="0.996078431372549" d="M 42.5 160 L 51.5 163 L 56 167.5 Q 58.9 171.1 58 178.5 L 51.5 188 Q 47.5 191.5 38.5 190 L 33 185.5 L 28 177.5 L 28 171.5 L 33.5 163 L 42.5 160 Z " /><path fill="rgb(205,31,50)" stroke="rgb(205,31,50)" stroke-width="1" opacity="0.996078431372549" d="M 149.5 160 L 154.5 161 L 161 165.5 Q 165 169 164 177.5 L 155.5 189 Q 152 191.5 144.5 190 L 137 184.5 Q 133 181 134 172.5 Q 135.5 166 140.5 163 L 149.5 160 Z " /><path fill="rgb(205,31,50)" stroke="rgb(205,31,50)" stroke-width="1" opacity="0.996078431372549" d="M 95.5 167 L 99 169.5 L 98.5 171 L 100.5 170 L 100.5 172 L 104.5 171 L 104.5 172 L 103 172.5 L 108 173 L 107.5 179 L 106.5 176 Q 105 178.5 103.5 175 Q 100.2 172.3 93.5 173 L 86.5 177 L 85 176.5 L 84.5 179 L 84 173 L 89 172.5 L 87 171.5 L 89.5 171 L 91.5 172 L 91.5 170 L 93.5 171 Q 91.8 169 95.5 167 Z " /><path fill="rgb(205,31,50)" stroke="rgb(205,31,50)" stroke-width="1" opacity="0.996078431372549" d="M 89.5 191 L 92.5 195 L 89.5 191 Z " /><path fill="rgb(205,31,50)" stroke="rgb(205,31,50)" stroke-width="1" opacity="0.996078431372549" d="M 102.5 191 L 99.5 195 L 102.5 191 Z " /><path fill="rgb(205,31,50)" stroke="rgb(205,31,50)" stroke-width="1" opacity="0.996078431372549" d="M 94.5 195 L 98 195.5 L 94.5 196 L 94.5 195 Z " /><path fill="rgb(253,221,1)" stroke="rgb(253,221,1)" stroke-width="1" opacity="1" d="M 35.5 63 L 45 68.5 L 43.5 68 L 35.5 64 L 33.5 67 L 34 65.5 L 35.5 63 Z " /><path fill="rgb(253,221,1)" stroke="rgb(253,221,1)" stroke-width="1" opacity="1" d="M 156.5 63 L 159 66.5 L 157 65.5 L 156.5 64 L 147.5 69 L 148.5 67 L 156.5 63 Z " /><path fill="rgb(253,221,1)" stroke="rgb(253,221,1)" stroke-width="1" opacity="1" d="M 32.5 68 L 33 69.5 L 29.5 82 L 29 77.5 L 32.5 68 Z " /><path fill="rgb(253,221,1)" stroke="rgb(253,221,1)" stroke-width="1" opacity="1" d="M 159.5 68 Q 163 73 163 81.5 L 162 81.5 L 162 77.5 L 159.5 68 Z " /><path fill="rgb(253,221,1)" stroke="rgb(253,221,1)" stroke-width="1" opacity="1" d="M 46.5 69 L 57 78.5 L 59 81.5 L 56 79.5 L 49.5 72 L 46.5 69 Z " /><path fill="rgb(253,221,1)" stroke="rgb(253,221,1)" stroke-width="1" opacity="1" d="M 145.5 69 L 143.5 72 L 136 78.5 L 133.5 82 L 135 79.5 L 142.5 71 L 145.5 69 Z " /><path fill="rgb(253,221,1)" stroke="rgb(253,221,1)" stroke-width="1" opacity="1" d="M 86.5 82 L 106 82.5 L 86.5 83 L 86.5 82 Z " /><path fill="rgb(253,221,1)" stroke="rgb(253,221,1)" stroke-width="1" opacity="1" d="M 59.5 83 L 61 85.5 L 60 85.5 L 59.5 83 Z " /><path fill="rgb(253,221,1)" stroke="rgb(253,221,1)" stroke-width="1" opacity="1" d="M 79.5 83 L 84 83.5 L 79.5 84 L 79.5 83 Z " /><path fill="rgb(253,221,1)" stroke="rgb(253,221,1)" stroke-width="1" opacity="1" d="M 108.5 83 L 113 83.5 L 108.5 84 L 108.5 83 Z " /><path fill="rgb(253,221,1)" stroke="rgb(253,221,1)" stroke-width="1" opacity="1" d="M 132.5 83 L 132 84.5 L 131.5 86 L 131 84.5 L 132.5 83 Z " /><path fill="rgb(253,221,1)" stroke="rgb(253,221,1)" stroke-width="1" opacity="1" d="M 75.5 84 L 78 84.5 L 75.5 85 L 75.5 84 Z " /><path fill="rgb(253,221,1)" stroke="rgb(253,221,1)" stroke-width="1" opacity="1" d="M 114.5 84 L 117 84.5 L 114.5 85 L 114.5 84 Z " /><path fill="rgb(253,221,1)" stroke="rgb(253,221,1)" stroke-width="1" opacity="1" d="M 28.5 85 L 29 88.5 L 28 88.5 L 28.5 85 Z " /><path fill="rgb(253,221,1)" stroke="rgb(253,221,1)" stroke-width="1" opacity="1" d="M 71.5 85 L 74 85.5 L 53.5 94 L 52.5 92 L 55.5 93 L 71.5 85 Z " /><path fill="rgb(253,221,1)" stroke="rgb(253,221,1)" stroke-width="1" opacity="1" d="M 118.5 85 L 123.5 86 L 138.5 93 L 140 92.5 L 136.5 94 Q 129.5 88 118.5 86 L 118.5 85 Z " /><path fill="rgb(253,221,1)" stroke="rgb(253,221,1)" stroke-width="1" opacity="1" d="M 163.5 85 L 164 88.5 L 163 88.5 L 163.5 85 Z " /><path fill="rgb(253,221,1)" stroke="rgb(253,221,1)" stroke-width="1" opacity="1" d="M 56.5 87 L 55.5 89 L 52.5 91 L 54.5 88 L 56.5 87 Z " /><path fill="rgb(253,221,1)" stroke="rgb(253,221,1)" stroke-width="1" opacity="1" d="M 135.5 87 L 140 90.5 L 137.5 89 L 135.5 87 Z " /><path fill="rgb(253,221,1)" stroke="rgb(253,221,1)" stroke-width="1" opacity="1" d="M 30.5 91 L 32.5 94 L 30.5 91 Z " /><path fill="rgb(253,221,1)" stroke="rgb(253,221,1)" stroke-width="1" opacity="1" d="M 161.5 91 L 160.5 93 L 161.5 91 Z " /><path fill="rgb(253,221,1)" stroke="rgb(253,221,1)" stroke-width="1" opacity="1" d="M 156.5 97 L 154.5 100 L 156.5 97 Z " /><path fill="rgb(253,221,1)" stroke="rgb(253,221,1)" stroke-width="1" opacity="1" d="M 36.5 98 L 37.5 100 L 36.5 98 Z " /><path fill="rgb(253,221,1)" stroke="rgb(253,221,1)" stroke-width="1" opacity="1" d="M 42.5 98 L 46 100.5 L 39.5 111 L 39 109.5 L 45 100.5 L 42.5 99 L 40 100.5 L 42.5 98 Z " /><path fill="rgb(253,221,1)" stroke="rgb(253,221,1)" stroke-width="1" opacity="1" d="M 148.5 98 L 152 100.5 L 149.5 99 L 147 100.5 L 153 110.5 L 152 110.5 L 146 100.5 L 148.5 98 Z " /><path fill="rgb(253,221,1)" stroke="rgb(253,221,1)" stroke-width="1" opacity="1" d="M 36.5 118 L 37 120.5 L 35.5 124 L 35 121.5 L 36.5 118 Z " /><path fill="rgb(253,221,1)" stroke="rgb(253,221,1)" stroke-width="1" opacity="1" d="M 155.5 118 L 157 123.5 L 156 123.5 L 155.5 118 Z " /><path fill="rgb(253,221,1)" stroke="rgb(253,221,1)" stroke-width="1" opacity="1" d="M 34.5 125 L 35 129.5 L 34 130.5 L 33.5 140 L 33 130.5 L 34.5 125 Z " /><path fill="rgb(253,221,1)" stroke="rgb(253,221,1)" stroke-width="1" opacity="1" d="M 55.5 125 L 62 125.5 L 55.5 126 L 55.5 125 Z " /><path fill="rgb(253,221,1)" stroke="rgb(253,221,1)" stroke-width="1" opacity="1" d="M 130.5 125 L 136 125.5 L 130.5 126 L 130.5 125 Z " /><path fill="rgb(253,221,1)" stroke="rgb(253,221,1)" stroke-width="1" opacity="1" d="M 157.5 125 L 159 130.5 L 159 138.5 L 158 138.5 L 157.5 125 Z " /><path fill="rgb(253,221,1)" stroke="rgb(253,221,1)" stroke-width="1" opacity="1" d="M 52.5 126 L 54 126.5 L 45 133.5 L 44.5 135 L 44 133.5 L 47 129 L 52.5 126 Z " /><path fill="rgb(253,221,1)" stroke="rgb(253,221,1)" stroke-width="1" opacity="1" d="M 63.5 126 L 71 131.5 Q 74.5 135.5 73 144.5 L 72 144.5 Q 73.9 131.6 66.5 128 Q 62.7 127.7 63.5 126 Z " /><path fill="rgb(253,221,1)" stroke="rgb(253,221,1)" stroke-width="1" opacity="1" d="M 127.5 126 L 129 126.5 L 122 131.5 L 120 135.5 L 119.5 145 L 119 135.5 L 125.5 127 L 127.5 126 Z " /><path fill="rgb(253,221,1)" stroke="rgb(253,221,1)" stroke-width="1" opacity="1" d="M 140.5 127 L 147 132.5 L 148 135.5 L 147 135.5 L 141.5 128 L 140.5 127 Z " /><path fill="rgb(253,221,1)" stroke="rgb(253,221,1)" stroke-width="1" opacity="1" d="M 43.5 136 L 44 139.5 L 43 139.5 L 43.5 136 Z " /><path fill="rgb(253,221,1)" stroke="rgb(253,221,1)" stroke-width="1" opacity="1" d="M 148.5 137 L 149 145.5 L 143.5 153 L 141.5 154 L 142.5 152 L 146 149.5 Q 149.3 145.3 148.5 137 Z " /><path fill="rgb(253,221,1)" stroke="rgb(253,221,1)" stroke-width="1" opacity="1" d="M 159.5 140 L 160 148.5 L 159 148.5 Q 160.5 143 158 141.5 L 159.5 140 Z " /><path fill="rgb(253,221,1)" stroke="rgb(253,221,1)" stroke-width="1" opacity="1" d="M 32.5 141 L 33 148.5 L 32 148.5 L 32.5 141 Z " /><path fill="rgb(253,221,1)" stroke="rgb(253,221,1)" stroke-width="1" opacity="1" d="M 43.5 142 L 44 145.5 L 43 145.5 L 43.5 142 Z " /><path fill="rgb(253,221,1)" stroke="rgb(253,221,1)" stroke-width="1" opacity="1" d="M 71.5 146 L 72 147.5 L 70 148.5 L 71.5 146 Z " /><path fill="rgb(253,221,1)" stroke="rgb(253,221,1)" stroke-width="1" opacity="1" d="M 120.5 146 L 122 148.5 L 120 147.5 L 120.5 146 Z " /><path fill="rgb(253,221,1)" stroke="rgb(253,221,1)" stroke-width="1" opacity="1" d="M 44.5 147 L 49 152.5 L 44 148.5 L 44.5 147 Z " /><path fill="rgb(253,221,1)" stroke="rgb(253,221,1)" stroke-width="1" opacity="1" d="M 94.5 149 L 98 149.5 L 94.5 150 L 94.5 149 Z " /><path fill="rgb(253,221,1)" stroke="rgb(253,221,1)" stroke-width="1" opacity="1" d="M 31.5 150 L 32 153.5 L 31 153.5 L 31.5 150 Z " /><path fill="rgb(253,221,1)" stroke="rgb(253,221,1)" stroke-width="1" opacity="1" d="M 69.5 150 L 67.5 153 L 61.5 156 L 54.5 156 L 50 153.5 L 51.5 154 L 61.5 155 L 69.5 150 Z " /><path fill="rgb(253,221,1)" stroke="rgb(253,221,1)" stroke-width="1" opacity="1" d="M 91.5 150 L 93 150.5 L 90.5 152 L 91.5 150 Z " /><path fill="rgb(253,221,1)" stroke="rgb(253,221,1)" stroke-width="1" opacity="1" d="M 99.5 150 L 102 151.5 Q 102.8 157.3 98.5 158 L 101 154.5 Q 102.5 150.1 99.5 151 L 99.5 150 Z " /><path fill="rgb(253,221,1)" stroke="rgb(253,221,1)" stroke-width="1" opacity="1" d="M 122.5 150 L 130 154.5 L 128.5 155 Q 123.5 153.5 122.5 150 Z " /><path fill="rgb(253,221,1)" stroke="rgb(253,221,1)" stroke-width="1" opacity="1" d="M 160.5 150 L 161 153.5 L 160 153.5 L 160.5 150 Z " /><path fill="rgb(253,221,1)" stroke="rgb(253,221,1)" stroke-width="1" opacity="1" d="M 90.5 153 L 94 157.5 L 90 154.5 L 90.5 153 Z " /><path fill="rgb(253,221,1)" stroke="rgb(253,221,1)" stroke-width="1" opacity="1" d="M 131.5 155 L 137 155.5 L 131.5 156 L 131.5 155 Z " /><path fill="rgb(253,221,1)" stroke="rgb(253,221,1)" stroke-width="1" opacity="1" d="M 37.5 157 L 42 157.5 L 37.5 158 L 37.5 157 Z " /><path fill="rgb(253,221,1)" stroke="rgb(253,221,1)" stroke-width="1" opacity="1" d="M 44.5 157 L 48 157.5 L 44.5 158 L 44.5 157 Z " /><path fill="rgb(253,221,1)" stroke="rgb(253,221,1)" stroke-width="1" opacity="1" d="M 144.5 157 L 148 157.5 L 144.5 158 L 144.5 157 Z " /><path fill="rgb(253,221,1)" stroke="rgb(253,221,1)" stroke-width="1" opacity="1" d="M 150.5 157 L 155 157.5 L 150.5 158 L 150.5 157 Z " /><path fill="rgb(253,221,1)" stroke="rgb(253,221,1)" stroke-width="1" opacity="1" d="M 29.5 158 L 30.5 161 L 35.5 158 L 35.5 159 L 28.5 164 L 28 162 L 30 161.5 L 29.5 158 Z " /><path fill="rgb(253,221,1)" stroke="rgb(253,221,1)" stroke-width="1" opacity="1" d="M 49.5 158 L 52.5 159 L 60 166.5 L 59.5 168 L 52.5 160 Q 48.7 159.8 49.5 158 Z " /><path fill="rgb(253,221,1)" stroke="rgb(253,221,1)" stroke-width="1" opacity="1" d="M 141.5 158 L 143 158.5 L 134 165.5 L 132.5 168 L 133 166.5 L 139.5 159 L 141.5 158 Z " /><path fill="rgb(253,221,1)" stroke="rgb(253,221,1)" stroke-width="1" opacity="1" d="M 156.5 158 L 160 160.5 L 157.5 159 L 156.5 158 Z " /><path fill="rgb(253,221,1)" stroke="rgb(253,221,1)" stroke-width="1" opacity="1" d="M 162.5 158 L 163 160.5 L 162.5 162 Q 164.8 161.3 164 163.5 L 161 161.5 L 162.5 158 Z " /><path fill="rgb(253,221,1)" stroke="rgb(253,221,1)" stroke-width="1" opacity="1" d="M 73.5 162 L 72 164.5 L 75.5 170 L 81 172 L 80.5 177 L 78.5 172 L 72 167.5 L 71 164.5 L 73.5 162 Z " /><path fill="rgb(253,221,1)" stroke="rgb(253,221,1)" stroke-width="1" opacity="1" d="M 95.5 162 Q 99.8 168.2 110.5 168 L 112.5 167 L 112.5 168 L 105.5 169 L 95.5 163 Q 91.9 169.4 81.5 169 L 76 165.5 L 78.5 167 L 86.5 168 Q 92.6 166.6 95.5 162 Z " /><path fill="rgb(253,221,1)" stroke="rgb(253,221,1)" stroke-width="1" opacity="1" d="M 118.5 162 L 121 165.5 L 116.5 171 L 112 173.5 L 111.5 177 L 111 172 L 119 167.5 L 120 164.5 L 118.5 162 Z " /><path fill="rgb(253,221,1)" stroke="rgb(253,221,1)" stroke-width="1" opacity="1" d="M 115.5 165 L 114.5 167 L 115.5 165 Z " /><path fill="rgb(253,221,1)" stroke="rgb(253,221,1)" stroke-width="1" opacity="1" d="M 61.5 172 L 62 178.5 Q 59.9 186.9 53.5 191 L 51 192.5 L 51.5 194 L 49 192.5 L 58 185.5 Q 61.7 180.7 61.5 172 Z " /><path fill="rgb(253,221,1)" stroke="rgb(253,221,1)" stroke-width="1" opacity="1" d="M 130.5 172 Q 130.6 184.9 138.5 190 L 143 192.5 L 140.5 194 L 139.5 191 L 133 185.5 Q 128.6 180.7 130.5 172 Z " /><path fill="rgb(253,221,1)" stroke="rgb(253,221,1)" stroke-width="1" opacity="1" d="M 81.5 179 L 82 181.5 L 81 181.5 L 81.5 179 Z " /><path fill="rgb(253,221,1)" stroke="rgb(253,221,1)" stroke-width="1" opacity="1" d="M 110.5 179 L 111 181.5 L 110 181.5 L 110.5 179 Z " /><path fill="rgb(253,221,1)" stroke="rgb(253,221,1)" stroke-width="1" opacity="1" d="M 82.5 183 L 84 187.5 L 83 187.5 L 82.5 183 Z " /><path fill="rgb(253,221,1)" stroke="rgb(253,221,1)" stroke-width="1" opacity="1" d="M 109.5 183 L 110 185.5 L 108.5 188 L 108 186.5 L 109.5 183 Z " /><path fill="rgb(253,221,1)" stroke="rgb(253,221,1)" stroke-width="1" opacity="1" d="M 85.5 191 L 90.5 197 L 94 198.5 L 92.5 199 L 87 194.5 L 85.5 191 Z " /><path fill="rgb(253,221,1)" stroke="rgb(253,221,1)" stroke-width="1" opacity="1" d="M 106.5 191 L 105 193.5 L 101.5 198 L 98.5 199 L 98.5 198 L 104 194.5 L 106.5 191 Z " /><path fill="rgb(253,221,1)" stroke="rgb(253,221,1)" stroke-width="1" opacity="1" d="M 53.5 194 L 56 195.5 L 54.5 195 L 53.5 194 Z " /><path fill="rgb(253,221,1)" stroke="rgb(253,221,1)" stroke-width="1" opacity="1" d="M 92.5 204 L 95 204.5 L 92.5 205 L 92.5 204 Z " /><path fill="rgb(207,181,1)" stroke="rgb(207,181,1)" stroke-width="1" opacity="1" d="M 38.5 64 L 41 65.5 L 39.5 65 L 38.5 64 Z " /><path fill="rgb(207,181,1)" stroke="rgb(207,181,1)" stroke-width="1" opacity="1" d="M 152.5 64 L 154 64.5 L 151.5 66 L 152.5 64 Z " /><path fill="rgb(207,181,1)" stroke="rgb(207,181,1)" stroke-width="1" opacity="1" d="M 33.5 65 L 33 66.5 L 32.5 68 L 32 66.5 L 33.5 65 Z " /><path fill="rgb(207,181,1)" stroke="rgb(207,181,1)" stroke-width="1" opacity="1" d="M 158.5 65 L 160 67.5 L 159 67.5 L 158.5 65 Z " /><path fill="rgb(207,181,1)" stroke="rgb(207,181,1)" stroke-width="1" opacity="1" d="M 50.5 71 L 55.5 77 L 50.5 71 Z " /><path fill="rgb(207,181,1)" stroke="rgb(207,181,1)" stroke-width="1" opacity="1" d="M 141.5 71 L 136.5 77 L 141.5 71 Z " /><path fill="rgb(207,181,1)" stroke="rgb(207,181,1)" stroke-width="1" opacity="1" d="M 29.5 74 L 30 76.5 L 29 76.5 L 29.5 74 Z " /><path fill="rgb(207,181,1)" stroke="rgb(207,181,1)" stroke-width="1" opacity="1" d="M 162.5 74 L 163 76.5 L 162 76.5 L 162.5 74 Z " /><path fill="rgb(207,181,1)" stroke="rgb(207,181,1)" stroke-width="1" opacity="1" d="M 28.5 79 L 29 82.5 L 28 82.5 L 28.5 79 Z " /><path fill="rgb(207,181,1)" stroke="rgb(207,181,1)" stroke-width="1" opacity="1" d="M 163.5 79 L 164 82.5 L 163 82.5 L 163.5 79 Z " /><path fill="rgb(207,181,1)" stroke="rgb(207,181,1)" stroke-width="1" opacity="1" d="M 58.5 80 L 59.5 82 L 58.5 80 Z " /><path fill="rgb(207,181,1)" stroke="rgb(207,181,1)" stroke-width="1" opacity="1" d="M 133.5 80 L 132.5 82 L 133.5 80 Z " /><path fill="rgb(207,181,1)" stroke="rgb(207,181,1)" stroke-width="1" opacity="1" d="M 88.5 81 L 104 81.5 L 88.5 82 L 88.5 81 Z " /><path fill="rgb(207,181,1)" stroke="rgb(207,181,1)" stroke-width="1" opacity="1" d="M 81.5 82 L 84 82.5 L 81.5 83 L 81.5 82 Z " /><path fill="rgb(207,181,1)" stroke="rgb(207,181,1)" stroke-width="1" opacity="1" d="M 108.5 82 L 111 82.5 L 108.5 83 L 108.5 82 Z " /><path fill="rgb(207,181,1)" stroke="rgb(207,181,1)" stroke-width="1" opacity="1" d="M 76.5 83 L 79 83.5 L 76.5 84 L 76.5 83 Z " /><path fill="rgb(207,181,1)" stroke="rgb(207,181,1)" stroke-width="1" opacity="1" d="M 113.5 83 L 116 83.5 L 113.5 84 L 113.5 83 Z " /><path fill="rgb(207,181,1)" stroke="rgb(207,181,1)" stroke-width="1" opacity="1" d="M 61.5 85 L 60.5 87 L 61.5 85 Z " /><path fill="rgb(207,181,1)" stroke="rgb(207,181,1)" stroke-width="1" opacity="1" d="M 130.5 85 L 131.5 87 L 130.5 85 Z " /><path fill="rgb(207,181,1)" stroke="rgb(207,181,1)" stroke-width="1" opacity="1" d="M 27.5 87 Q 32 97 40 103.5 L 36.5 106 L 28 99.5 L 27.5 87 Z " /><path fill="rgb(207,181,1)" stroke="rgb(207,181,1)" stroke-width="1" opacity="1" d="M 164.5 87 L 165 94.5 L 164 99.5 L 161.5 102 L 154.5 106 L 152 102.5 Q 160.3 96.9 164.5 87 Z " /><path fill="rgb(207,181,1)" stroke="rgb(207,181,1)" stroke-width="1" opacity="1" d="M 54.5 89 L 53.5 91 L 54.5 89 Z " /><path fill="rgb(207,181,1)" stroke="rgb(207,181,1)" stroke-width="1" opacity="1" d="M 137.5 89 L 138.5 91 L 137.5 89 Z " /><path fill="rgb(207,181,1)" stroke="rgb(207,181,1)" stroke-width="1" opacity="1" d="M 56.5 91 L 55.5 93 L 53 92.5 L 56.5 91 Z " /><path fill="rgb(207,181,1)" stroke="rgb(207,181,1)" stroke-width="1" opacity="1" d="M 135.5 91 L 139 92.5 L 136.5 93 L 135.5 91 Z " /><path fill="rgb(207,181,1)" stroke="rgb(207,181,1)" stroke-width="1" opacity="1" d="M 42.5 99 L 45 100.5 L 42.5 104 L 44 101.5 Q 44.8 99.3 42.5 100 L 41 100.5 L 42.5 99 Z " /><path fill="rgb(207,181,1)" stroke="rgb(207,181,1)" stroke-width="1" opacity="1" d="M 148.5 99 L 151 100.5 L 149.5 100 Q 147.3 99.3 148 101.5 L 149.5 104 L 147 100.5 L 148.5 99 Z " /><path fill="rgb(207,181,1)" stroke="rgb(207,181,1)" stroke-width="1" opacity="1" d="M 41.5 105 L 40.5 107 L 41.5 105 Z " /><path fill="rgb(207,181,1)" stroke="rgb(207,181,1)" stroke-width="1" opacity="1" d="M 150.5 105 L 151.5 107 L 150.5 105 Z " /><path fill="rgb(207,181,1)" stroke="rgb(207,181,1)" stroke-width="1" opacity="1" d="M 33.5 126 L 34 129.5 L 33 129.5 L 33.5 126 Z " /><path fill="rgb(207,181,1)" stroke="rgb(207,181,1)" stroke-width="1" opacity="1" d="M 55.5 126 L 62 126.5 L 55.5 127 L 55.5 126 Z " /><path fill="rgb(207,181,1)" stroke="rgb(207,181,1)" stroke-width="1" opacity="1" d="M 130.5 126 L 136 126.5 L 130.5 127 L 130.5 126 Z " /><path fill="rgb(207,181,1)" stroke="rgb(207,181,1)" stroke-width="1" opacity="1" d="M 158.5 126 L 159 129.5 L 158 129.5 L 158.5 126 Z " /><path fill="rgb(207,181,1)" stroke="rgb(207,181,1)" stroke-width="1" opacity="1" d="M 50.5 128 L 49.5 130 L 50.5 128 Z " /><path fill="rgb(207,181,1)" stroke="rgb(207,181,1)" stroke-width="1" opacity="1" d="M 66.5 128 L 69.5 132 L 66.5 128 Z " /><path fill="rgb(207,181,1)" stroke="rgb(207,181,1)" stroke-width="1" opacity="1" d="M 124.5 129 L 122.5 132 L 124.5 129 Z " /><path fill="rgb(207,181,1)" stroke="rgb(207,181,1)" stroke-width="1" opacity="1" d="M 142.5 129 L 145.5 133 L 142.5 129 Z " /><path fill="rgb(207,181,1)" stroke="rgb(207,181,1)" stroke-width="1" opacity="1" d="M 46.5 132 L 46 133.5 L 45.5 135 L 45 133.5 L 46.5 132 Z " /><path fill="rgb(207,181,1)" stroke="rgb(207,181,1)" stroke-width="1" opacity="1" d="M 32.5 133 L 33 137.5 L 32 137.5 L 32.5 133 Z " /><path fill="rgb(207,181,1)" stroke="rgb(207,181,1)" stroke-width="1" opacity="1" d="M 159.5 133 L 160 137.5 L 159 137.5 L 159.5 133 Z " /><path fill="rgb(207,181,1)" stroke="rgb(207,181,1)" stroke-width="1" opacity="1" d="M 147.5 137 L 148 145.5 L 147 145.5 L 147.5 137 Z " /><path fill="rgb(207,181,1)" stroke="rgb(207,181,1)" stroke-width="1" opacity="1" d="M 31.5 147 L 32 149.5 L 31 149.5 L 31.5 147 Z " /><path fill="rgb(207,181,1)" stroke="rgb(207,181,1)" stroke-width="1" opacity="1" d="M 70.5 147 L 69.5 149 L 70.5 147 Z " /><path fill="rgb(207,181,1)" stroke="rgb(207,181,1)" stroke-width="1" opacity="1" d="M 121.5 147 L 122.5 149 L 121.5 147 Z " /><path fill="rgb(207,181,1)" stroke="rgb(207,181,1)" stroke-width="1" opacity="1" d="M 160.5 147 L 161 149.5 L 160 149.5 L 160.5 147 Z " /><path fill="rgb(207,181,1)" stroke="rgb(207,181,1)" stroke-width="1" opacity="1" d="M 46.5 149 L 48.5 152 L 46.5 149 Z " /><path fill="rgb(207,181,1)" stroke="rgb(207,181,1)" stroke-width="1" opacity="1" d="M 144.5 150 L 143.5 152 L 144.5 150 Z " /><path fill="rgb(207,181,1)" stroke="rgb(207,181,1)" stroke-width="1" opacity="1" d="M 50.5 152 L 53 153.5 L 51.5 154 L 50.5 152 Z " /><path fill="rgb(207,181,1)" stroke="rgb(207,181,1)" stroke-width="1" opacity="1" d="M 55.5 154 L 61 154.5 L 55.5 155 L 55.5 154 Z " /><path fill="rgb(207,181,1)" stroke="rgb(207,181,1)" stroke-width="1" opacity="1" d="M 91.5 154 L 93.5 157 L 91.5 154 Z " /><path fill="rgb(207,181,1)" stroke="rgb(207,181,1)" stroke-width="1" opacity="1" d="M 100.5 154 L 98.5 157 L 100.5 154 Z " /><path fill="rgb(207,181,1)" stroke="rgb(207,181,1)" stroke-width="1" opacity="1" d="M 131.5 154 L 137 154.5 L 131.5 155 L 131.5 154 Z " /><path fill="rgb(207,181,1)" stroke="rgb(207,181,1)" stroke-width="1" opacity="1" d="M 37.5 158 L 40 158.5 L 37.5 159 L 37.5 158 Z " /><path fill="rgb(207,181,1)" stroke="rgb(207,181,1)" stroke-width="1" opacity="1" d="M 152.5 158 L 155 158.5 L 152.5 159 L 152.5 158 Z " /><path fill="rgb(207,181,1)" stroke="rgb(207,181,1)" stroke-width="1" opacity="1" d="M 49.5 159 Q 55.6 160.4 58 165.5 L 52.5 161 Q 48.7 160.8 49.5 159 Z " /><path fill="rgb(207,181,1)" stroke="rgb(207,181,1)" stroke-width="1" opacity="1" d="M 141.5 159 L 143 159.5 L 134.5 166 L 139.5 160 L 141.5 159 Z " /><path fill="rgb(207,181,1)" stroke="rgb(207,181,1)" stroke-width="1" opacity="1" d="M 30.5 162 L 29.5 164 L 30.5 162 Z " /><path fill="rgb(207,181,1)" stroke="rgb(207,181,1)" stroke-width="1" opacity="1" d="M 161.5 162 L 162.5 164 L 161.5 162 Z " /><path fill="rgb(207,181,1)" stroke="rgb(207,181,1)" stroke-width="1" opacity="1" d="M 27.5 163 L 29 165.5 L 27 166.5 L 27.5 163 Z " /><path fill="rgb(207,181,1)" stroke="rgb(207,181,1)" stroke-width="1" opacity="1" d="M 73.5 163 L 73 164.5 L 72.5 166 L 72 164.5 L 73.5 163 Z " /><path fill="rgb(207,181,1)" stroke="rgb(207,181,1)" stroke-width="1" opacity="1" d="M 95.5 163 L 101 167.5 L 96.5 164 L 91.5 168 L 95.5 163 Z " /><path fill="rgb(207,181,1)" stroke="rgb(207,181,1)" stroke-width="1" opacity="1" d="M 118.5 163 L 120 165.5 L 119 165.5 L 118.5 163 Z " /><path fill="rgb(207,181,1)" stroke="rgb(207,181,1)" stroke-width="1" opacity="1" d="M 164.5 163 L 165 166.5 L 163 165.5 L 164.5 163 Z " /><path fill="rgb(207,181,1)" stroke="rgb(207,181,1)" stroke-width="1" opacity="1" d="M 75.5 165 L 77.5 168 L 75.5 165 Z " /><path fill="rgb(207,181,1)" stroke="rgb(207,181,1)" stroke-width="1" opacity="1" d="M 116.5 165 L 114.5 168 L 116.5 165 Z " /><path fill="rgb(207,181,1)" stroke="rgb(207,181,1)" stroke-width="1" opacity="1" d="M 73.5 167 L 74.5 169 L 73.5 167 Z " /><path fill="rgb(207,181,1)" stroke="rgb(207,181,1)" stroke-width="1" opacity="1" d="M 118.5 167 L 117.5 169 L 118.5 167 Z " /><path fill="rgb(207,181,1)" stroke="rgb(207,181,1)" stroke-width="1" opacity="1" d="M 87.5 168 L 90 168.5 L 87.5 169 L 87.5 168 Z " /><path fill="rgb(207,181,1)" stroke="rgb(207,181,1)" stroke-width="1" opacity="1" d="M 102.5 168 L 105 168.5 L 102.5 169 L 102.5 168 Z " /><path fill="rgb(207,181,1)" stroke="rgb(207,181,1)" stroke-width="1" opacity="1" d="M 60.5 172 L 61 178.5 L 60 178.5 L 60.5 172 Z " /><path fill="rgb(207,181,1)" stroke="rgb(207,181,1)" stroke-width="1" opacity="1" d="M 131.5 172 L 132 178.5 L 131 178.5 L 131.5 172 Z " /><path fill="rgb(207,181,1)" stroke="rgb(207,181,1)" stroke-width="1" opacity="1" d="M 81.5 173 L 82 177.5 L 81 177.5 L 81.5 173 Z " /><path fill="rgb(207,181,1)" stroke="rgb(207,181,1)" stroke-width="1" opacity="1" d="M 110.5 173 L 111 177.5 L 110 177.5 L 110.5 173 Z " /><path fill="rgb(207,181,1)" stroke="rgb(207,181,1)" stroke-width="1" opacity="1" d="M 56.5 186 L 53.5 190 L 56.5 186 Z " /><path fill="rgb(207,181,1)" stroke="rgb(207,181,1)" stroke-width="1" opacity="1" d="M 135.5 186 L 138.5 190 L 135.5 186 Z " /><path fill="rgb(207,181,1)" stroke="rgb(207,181,1)" stroke-width="1" opacity="1" d="M 46.5 192 L 58.5 198 L 73.5 203 L 84.5 205 L 107.5 205 L 128.5 200 L 145.5 192 L 149 193 L 147.5 196 L 124.5 207 L 111.5 210 L 89.5 211 L 88.5 210 L 75 209 L 74.5 207 L 71.5 208 Q 54.5 204 43 194.5 Q 42.2 191.9 45.5 193 L 46.5 192 Z " /><path fill="rgb(207,181,1)" stroke="rgb(207,181,1)" stroke-width="1" opacity="1" d="M 88.5 194 L 90.5 197 L 88.5 194 Z " /><path fill="rgb(207,181,1)" stroke="rgb(207,181,1)" stroke-width="1" opacity="1" d="M 103.5 194 L 101.5 197 L 103.5 194 Z " /><path fill="rgb(253,218,1)" stroke="rgb(253,218,1)" stroke-width="1" opacity="1" d="M 35.5 64 L 36.5 66 Q 38.3 63.3 40 67.5 L 40.5 69 L 41.5 67 L 42.5 69 L 44.5 69 L 48 71.5 L 47.5 73 L 49.5 72 L 56 78.5 L 56 81 L 59 82.5 L 57 83.5 L 60 84.5 Q 60.8 86.8 58.5 86 L 53 88 Q 54 91 51 90 L 50 87.5 L 53 85.5 L 48.5 83 L 45 84.5 L 50 85.5 Q 46.5 87 49 88.5 L 50 90.5 Q 47.3 92.2 51.5 94 L 53.5 94 L 59.5 91 L 60 93 L 57 93.5 L 61 94 Q 60 91 63 92 L 63 89.5 L 68 88.5 Q 67.2 85.9 70.5 87 L 77 85 L 76 87.5 L 78 88.5 Q 76.9 85.2 79.5 86 L 81 86.5 Q 79.9 83.2 82.5 84 L 84 84.5 Q 83.5 81.5 90.5 83 L 92.5 84 L 94.5 83 L 96.5 84 L 98.5 83 L 100.5 85 L 104.5 83 Q 109.3 81.3 108 85.5 L 110.5 84 L 114 84.5 L 113.5 86 L 115.5 85 L 116 87 L 118 86.5 L 117.5 85 L 121 86.5 L 120 88.5 L 122.5 87 Q 124.8 86.3 124 88.5 L 126.5 89 Q 130.7 87.7 129 92.5 L 130.5 92 L 132.5 91 L 133.5 94 L 134.5 92 L 136.5 96 L 137.5 94 L 138.5 97 L 140 90.5 L 138.5 88 Q 140.8 87.3 140 89.5 Q 143.1 91.3 141.5 93 L 143.5 94 L 144 92.5 L 144 90.5 Q 144.8 86.8 142.5 86 L 142 87.5 L 143 89.5 L 142 89.5 L 140.5 87 L 137.5 85 L 136.5 88 L 135.5 85 L 134.5 87 L 132 86 L 135.5 80 L 137 79.5 L 136 78.5 L 142.5 72 L 142.5 74 Q 145.1 74.8 144 71.5 Q 146 67.8 148 69.5 L 148.5 68 L 150 68.5 Q 149.3 66.3 151.5 67 L 153 66.5 Q 152.3 68.8 154.5 68 L 157.5 72 L 158 68 L 156 68 Q 157.1 65.3 154.5 66 L 154.5 65 L 156.5 64 L 156.5 66 L 159 67.5 L 160 70.5 Q 157.5 72 161 73.5 L 160.5 76 L 158.5 75 L 159 76.5 L 160.5 79 Q 162.8 78.3 162 80.5 L 160 80.5 L 158.5 83 Q 156.3 82.3 157 84.5 L 158.5 84 L 161 84 Q 160 81 163 82 Q 163.8 86.5 161 88.5 L 163 88.5 L 160.5 92 L 159 92.5 L 160 94.5 L 154 99.5 Q 154.8 101.8 152.5 101 L 148.5 98 L 145 100.5 L 148 103.5 L 148 105.5 L 148.5 107 Q 149.8 104.8 151 107.5 L 152 109.5 L 150 110 L 150.5 112 L 153 111 L 152 113.5 L 154 114 L 155 117.5 L 152 118.5 L 152.5 122 L 153.5 119 L 155.5 122 L 152 123.5 L 152.5 126 Q 155.1 126.8 154 123.5 L 155.5 124 Q 158.3 123.4 157 129.5 L 158 132.5 L 158 134.5 L 157 136.5 L 159 140.5 L 159 142.5 L 157 147.5 L 160 149 L 158 152.5 L 161 154 L 160 156.5 L 162 157 Q 163.1 159.7 160.5 159 L 160.5 160 L 163 161.5 L 161.5 161 L 158 158.5 L 157.5 157 L 155.5 158 L 155.5 157 L 157 156.5 L 153.5 155 L 153.5 157 Q 146.7 157.9 144 156 L 143.5 158 L 142.5 154 L 140.5 158 L 138 159.5 L 134.5 164 L 132 164.5 L 133 167 Q 130.3 168.1 131 165.5 L 129.5 166 L 128 166.5 L 132 168.5 L 129.5 173 L 128 170.5 L 129.5 168 L 126 170.5 Q 129.5 172 127 173.5 Q 126.2 176.1 129.5 175 L 129 176.5 L 131 179.5 L 129 180 L 129.5 183 L 130.5 181 L 131.5 184 L 133 184.5 L 130 185.5 L 134 188.5 L 134.5 187 L 136 190 L 141 192.5 L 136 195 L 135.5 193 L 133 194.5 L 134.5 197 L 132.5 198 L 132 196.5 L 132.5 195 Q 129.2 193.9 130 196.5 L 130.5 198 L 124.5 201 L 125.5 198 L 123.5 199 Q 125.2 197 121.5 195 L 120 195.5 Q 123.5 197 121 198.5 Q 120.3 200.8 122.5 200 L 122.5 201 L 117.5 200 L 117.5 201 L 119 201.5 L 116.5 203 L 114.5 200 L 113 200.5 L 114 203 L 110.5 204 L 109 201 L 107 201.5 L 108 204 L 102.5 205 L 100.5 204 L 99 204.5 L 100 202 L 97 203.5 L 97.5 205 L 92.5 204 L 90.5 205 L 89.5 204 L 83 204 L 85 200 L 81 201.5 L 82 204 L 77 203 L 76.5 200 L 75.5 203 Q 73.5 200.2 69 201 L 68.5 199 L 67.5 201 L 62.5 198 L 60.5 197 L 58.5 197 L 55 194.5 Q 55.8 192.3 53.5 193 Q 52.3 195.3 51 192.5 L 54 191.5 L 58.5 186 L 61 185.5 L 59 184.5 L 60.5 184 L 62.5 185 L 63.5 183 L 61.5 182 L 60 182.5 L 63.5 177 Q 66.1 176.3 65 179 L 68.5 179 L 68.5 178 L 65 175.5 Q 67.3 174.2 64.5 173 L 63.5 176 L 61 170.5 L 64 169.5 L 62 168.5 L 65 167.5 L 63 167 L 61.5 164 L 58.5 165 L 51 159 L 52.5 155 L 56.5 158 L 57.5 156 L 60.5 157 L 62.5 156 L 62 157.5 L 62.5 159 L 65 157.5 L 64 154 L 66.5 153 L 67 155.5 L 68.5 159 Q 71.3 157.8 69 156.5 L 70 153.5 L 68 153.5 L 72.5 147 L 74 146.5 L 72 145.5 L 74 139.5 L 73 136.5 L 73 134.5 Q 73.8 132.3 71.5 133 L 71.5 132 L 75.5 134 L 76 132 L 71.5 130 Q 70.3 132.3 69 129.5 L 66.5 125 L 65.5 127 L 64.5 125 L 62.5 126 L 62.5 125 L 65 123.5 L 62.5 123 L 60.5 124 L 56.5 124 Q 54.3 123.3 55 125.5 L 52 124.5 L 51.5 127 L 50 126.5 L 48.5 129 Q 47.3 126.8 46 129.5 Q 48.3 130.8 45.5 132 L 43 133.5 L 44 135.5 Q 40.5 137 43 138.5 L 42 146.5 L 44 146.5 L 44 148.5 L 48.5 153 L 51 154.5 L 49 155.5 L 50 158 Q 47.3 159.1 48 156.5 L 46.5 157 L 38.5 157 L 37.5 156 L 37 158 L 32.5 157 L 33 158.5 L 32.5 160 L 30 159.5 L 30 157 Q 32.7 158.1 32 155.5 L 32 153.5 L 33 151.5 L 32 149.5 L 34 144.5 L 33 140.5 L 35 136.5 L 34 134.5 L 36 134.5 Q 36.7 131.9 34 133 L 34 130.5 L 35 130.5 L 36.5 133 L 39 132.5 L 35 128.5 L 35 126.5 L 36.5 123 L 38 122.5 L 36 121.5 L 38 120.5 L 37 117.5 L 39.5 119 L 40.5 118 L 42 117.5 L 38 116 L 40.5 109 L 44 110 L 43.5 108 Q 42.3 110.3 41 107.5 L 46 104.5 L 44 103.5 L 48.5 100 L 49.5 102 L 50 99 L 55 98.5 L 48.5 98 Q 47 101.5 45.5 99 L 42.5 97 L 39.5 101 Q 37.3 101.8 38 99.5 L 32 94.5 L 34 93.5 L 32 93 Q 30.9 90.3 33.5 91 L 31.5 88 Q 29.3 87.3 30 89.5 L 30.5 91 L 29 88.5 L 29 86.5 Q 28 81 31.5 80 L 33 79.5 L 30 79 L 30.5 77 L 32.5 78 L 31 75.5 L 32.5 70 L 35.5 74 L 36 72.5 L 33 67.5 L 35.5 64 Z M 36 68 L 35 70 L 40 70 L 36 68 Z M 153 69 L 153 72 L 154 72 Q 155 68 153 69 Z M 37 71 L 38 73 Q 39 70 37 71 Z M 40 72 L 39 76 L 40 76 L 40 72 Z M 45 72 L 42 74 L 45 74 L 45 72 Z M 148 73 Q 146 76 149 75 L 148 73 Z M 142 74 L 141 76 L 144 76 L 142 74 Z M 35 75 L 35 77 L 37 76 L 35 75 Z M 45 75 L 45 76 Q 48 75 47 78 Q 44 79 49 81 L 53 81 L 50 80 L 49 78 L 51 79 L 49 75 L 45 75 Z M 145 75 L 145 77 L 147 76 L 145 75 Z M 147 77 Q 145 80 148 79 L 147 77 Z M 153 77 L 153 78 L 155 78 L 153 77 Z M 34 78 L 35 80 Q 36 77 34 78 Z M 55 78 L 54 82 L 56 82 L 55 78 Z M 159 78 L 157 80 L 159 80 L 159 78 Z M 139 79 L 139 82 Q 142 81 139 79 Z M 143 79 L 144 81 Q 145 78 143 79 Z M 155 79 L 154 81 L 156 80 L 155 79 Z M 38 80 L 36 81 L 35 84 L 36 85 L 38 82 L 38 80 Z M 40 80 L 39 82 Q 43 83 40 85 L 40 84 L 38 83 L 38 86 Q 41 85 40 88 L 42 88 L 41 86 L 43 86 Q 45 85 44 88 L 46 87 L 42 84 L 40 80 Z M 43 80 Q 41 83 44 82 L 43 80 Z M 32 84 L 33 86 L 34 86 L 32 84 Z M 86 84 L 84 86 L 86 86 L 86 84 Z M 89 84 L 90 87 L 91 85 L 89 84 Z M 146 84 Q 144 87 147 86 L 146 84 Z M 150 84 Q 149 88 152 87 L 152 85 L 150 84 Z M 162 84 L 159 86 L 162 86 L 162 84 Z M 157 85 L 155 88 L 159 87 L 157 85 Z M 84 86 L 84 89 L 86 88 L 84 86 Z M 74 87 L 72 90 L 74 90 Q 77 89 74 87 Z M 88 87 L 89 89 Q 90 86 88 87 Z M 97 87 L 95 88 L 95 89 L 99 88 L 97 87 Z M 102 87 L 100 90 L 100 91 L 104 90 L 102 89 L 102 87 Z M 107 87 L 106 90 L 108 90 L 107 87 Z M 115 87 L 113 90 L 115 89 Q 119 88 118 91 L 120 91 L 119 88 L 118 88 L 115 87 Z M 160 87 L 158 89 L 161 91 L 160 87 Z M 80 88 L 82 90 Q 83 87 80 88 Z M 150 88 L 148 91 L 150 90 L 153 91 L 154 91 L 153 89 L 152 89 L 150 88 Z M 67 89 L 64 93 L 67 91 L 67 89 Z M 70 89 L 70 92 L 72 91 L 70 89 Z M 90 89 L 89 92 L 90 92 L 90 89 Z M 110 89 L 109 91 L 110 92 L 108 91 L 109 93 L 112 93 L 110 89 Z M 121 89 Q 120 92 124 91 Q 125 88 121 89 Z M 80 90 L 79 92 L 77 93 L 80 94 L 81 94 L 80 90 Z M 98 90 L 96 92 L 99 92 L 98 90 Z M 42 91 L 42 93 L 44 92 L 42 91 Z M 73 91 L 73 93 Q 72 95 75 94 L 74 93 Q 75 90 73 91 Z M 156 91 L 157 93 L 158 93 L 156 91 Z M 47 92 L 47 94 L 49 93 L 47 92 Z M 69 92 Q 67 95 70 94 L 69 92 Z M 100 92 L 99 93 Q 94 91 95 95 L 97 94 L 97 96 Q 99 97 98 95 L 100 95 Q 103 94 100 92 Z M 91 93 Q 92 96 89 98 L 92 98 Q 94 97 92 96 L 93 94 L 91 93 Z M 118 93 L 117 95 L 116 94 L 114 95 L 117 96 Q 118 98 119 96 L 118 93 Z M 147 93 L 147 95 L 149 94 L 147 93 Z M 36 94 L 35 96 Q 39 97 38 95 L 36 94 Z M 47 94 Q 44 99 48 98 L 48 96 L 47 94 Z M 62 94 L 63 96 Q 64 93 62 94 Z M 65 94 Q 63 97 66 96 L 65 94 Z M 72 94 Q 70 97 69 95 L 67 96 L 70 100 L 67 101 L 69 101 L 68 104 L 70 104 L 72 101 L 71 98 L 73 98 L 71 97 L 73 96 L 72 94 Z M 77 94 L 77 96 L 79 95 L 77 94 Z M 89 94 L 88 97 L 89 97 L 89 94 Z M 107 94 L 105 97 L 108 95 L 107 94 Z M 124 94 L 125 96 Q 126 93 124 94 Z M 141 94 L 140 96 L 143 97 L 141 94 Z M 40 95 L 40 96 L 42 96 L 40 95 Z M 53 95 L 51 97 L 53 97 L 53 95 Z M 56 95 L 56 97 L 58 96 L 56 95 Z M 60 95 Q 58 98 61 97 L 60 95 Z M 86 95 Q 81 97 85 99 L 85 98 L 87 98 L 86 95 Z M 131 95 L 130 97 L 133 98 L 133 96 L 131 95 Z M 67 96 L 66 98 L 68 99 L 67 96 Z M 75 96 Q 75 100 73 99 L 74 101 L 77 98 Q 80 99 81 97 L 79 96 L 75 96 Z M 99 96 L 100 98 Q 101 95 99 96 Z M 101 96 Q 100 99 103 98 Q 104 95 101 96 Z M 126 96 Q 126 100 128 97 L 126 96 Z M 59 97 L 58 99 L 61 99 L 59 97 Z M 95 97 Q 92 99 95 100 L 97 100 L 96 99 L 96 98 L 95 97 Z M 108 97 L 106 100 L 110 102 Q 111 99 109 100 L 108 97 Z M 139 97 L 139 99 L 141 98 L 139 97 Z M 111 98 Q 109 101 113 102 Q 115 103 114 101 L 111 98 Z M 114 98 L 115 100 Q 116 97 114 98 Z M 120 98 L 121 99 L 122 100 Q 123 97 120 98 Z M 123 98 L 124 101 L 123 100 L 121 101 L 119 104 L 122 102 L 124 103 L 126 102 L 125 100 Q 126 97 123 98 Z M 145 98 L 138 102 L 139 105 L 144 103 Q 142 101 145 100 L 145 98 Z M 86 99 Q 86 103 88 100 L 86 99 Z M 102 99 L 100 101 L 102 101 Q 103 103 104 101 L 102 99 Z M 129 99 L 127 101 L 129 101 L 129 99 Z M 55 100 L 56 104 L 57 101 L 55 100 Z M 58 100 L 58 102 L 60 101 L 58 100 Z M 62 100 L 58 106 Q 61 107 60 105 L 62 105 L 63 102 L 62 100 Z M 82 100 L 79 103 L 82 104 L 81 103 L 84 104 L 85 101 L 84 101 L 82 100 Z M 89 100 L 90 101 Q 91 103 92 101 L 89 100 Z M 117 100 L 118 102 Q 119 99 117 100 Z M 136 100 L 136 102 L 138 101 L 136 100 Z M 75 101 L 76 103 Q 77 100 75 101 Z M 97 101 L 98 103 L 99 103 L 97 101 Z M 88 102 Q 87 105 91 104 L 90 107 L 92 107 L 94 109 L 92 106 L 94 106 Q 95 103 93 104 L 93 102 L 91 103 L 88 102 Z M 114 102 L 113 106 L 117 103 L 114 102 Z M 126 102 L 126 105 L 128 106 L 130 104 L 132 106 L 131 103 L 128 104 L 128 103 L 126 102 Z M 53 103 L 54 105 L 55 105 L 53 103 Z M 122 103 L 120 105 L 122 105 L 122 103 Z M 135 103 L 135 106 Q 138 107 137 105 L 135 103 Z M 50 104 L 48 106 L 50 107 L 50 104 Z M 64 104 L 62 108 L 64 108 L 64 104 Z M 75 104 L 73 107 L 76 108 Q 79 109 80 106 L 78 105 Q 79 108 75 106 L 75 104 Z M 109 104 L 109 106 L 111 105 L 109 104 Z M 102 105 L 103 108 L 105 107 L 102 105 Z M 108 105 L 106 107 L 109 107 L 108 105 Z M 142 105 L 142 106 Q 144 105 143 108 Q 146 109 145 107 L 142 105 Z M 46 106 Q 46 110 48 107 L 46 106 Z M 53 106 L 53 109 L 56 109 L 57 109 L 53 106 Z M 68 106 L 67 108 Q 71 109 70 107 L 68 106 Z M 84 106 Q 82 109 85 108 L 84 106 Z M 95 106 L 95 108 L 97 107 L 95 106 Z M 111 106 Q 111 110 113 107 L 111 106 Z M 135 106 L 134 108 L 138 111 L 135 106 Z M 138 106 L 137 108 L 140 109 L 140 107 L 138 106 Z M 80 107 L 80 111 L 81 111 L 80 107 Z M 90 107 L 88 109 L 91 109 L 90 107 Z M 110 107 L 109 109 L 109 111 L 111 111 L 110 107 Z M 114 107 L 114 108 L 116 108 L 114 107 Z M 125 107 L 125 109 L 127 108 L 125 107 Z M 71 108 L 70 110 L 72 111 L 71 108 Z M 73 108 L 73 109 L 75 109 L 73 108 Z M 86 108 L 84 110 L 87 110 L 86 108 Z M 117 108 L 114 110 L 116 110 L 116 113 L 112 116 L 115 116 Q 116 112 118 115 L 120 115 L 119 114 L 119 112 Q 116 113 117 110 L 119 110 L 117 108 Z M 123 108 L 122 111 L 124 111 L 123 108 Z M 133 108 L 130 110 L 132 110 L 133 113 L 134 111 L 133 108 Z M 48 109 L 44 113 L 46 113 L 47 112 L 49 114 Q 50 110 48 109 Z M 68 109 Q 68 113 66 112 L 66 111 L 64 110 Q 63 115 67 113 L 68 116 L 69 114 L 69 116 L 70 116 Q 71 112 69 113 L 69 112 L 68 109 Z M 97 109 L 95 111 Q 96 113 93 112 L 93 110 L 91 113 L 97 114 L 96 113 L 97 111 L 97 109 Z M 52 110 Q 50 113 53 112 L 52 110 Z M 57 110 L 55 112 L 57 113 L 57 110 Z M 89 110 L 89 111 L 91 111 L 89 110 Z M 103 110 Q 101 113 104 112 L 103 110 Z M 128 110 L 127 112 L 125 113 L 128 113 Q 131 112 128 110 Z M 85 111 Q 85 115 87 112 L 85 111 Z M 98 111 L 98 112 L 100 112 L 98 111 Z M 111 111 L 111 114 L 109 115 L 112 115 L 113 113 Q 114 110 111 111 Z M 144 111 L 143 114 L 145 114 L 144 111 Z M 40 112 L 40 115 L 43 116 L 44 117 Q 45 114 43 115 Q 40 114 42 113 L 40 112 Z M 77 112 L 78 114 L 80 113 L 81 114 L 81 112 L 77 112 Z M 102 112 L 101 115 Q 103 118 104 115 L 102 114 L 102 112 Z M 123 112 L 124 114 Q 125 111 123 112 Z M 135 112 L 134 116 L 136 115 L 136 117 L 138 117 L 137 114 L 136 114 L 135 112 Z M 56 113 L 55 116 L 57 116 L 56 113 Z M 147 113 L 146 115 Q 150 116 149 114 L 147 113 Z M 50 114 L 48 116 Q 50 119 51 116 Q 52 113 50 114 Z M 63 114 L 63 116 L 65 115 L 63 114 Z M 72 114 L 73 118 L 74 115 L 72 114 Z M 80 114 L 79 116 L 81 117 L 80 114 Z M 126 114 L 124 116 L 125 117 Q 126 114 130 115 L 126 114 Z M 133 114 L 130 116 L 133 116 L 133 114 Z M 140 114 Q 138 117 141 116 L 140 114 Z M 45 115 L 45 117 L 47 116 L 45 115 Z M 62 115 L 62 119 L 63 119 L 62 115 Z M 86 115 L 85 118 L 86 118 L 86 115 Z M 48 116 L 47 118 L 49 119 L 48 116 Z M 59 116 Q 59 119 57 118 L 55 118 Q 52 117 53 120 L 57 119 L 58 123 L 61 123 L 61 121 L 58 120 L 61 119 L 59 118 L 59 116 Z M 83 116 L 84 118 Q 85 115 83 116 Z M 88 116 L 88 119 L 90 118 L 92 119 L 92 117 L 88 116 Z M 120 116 L 119 118 L 116 120 L 116 123 L 119 123 L 117 122 L 120 121 L 120 116 Z M 148 116 L 148 117 L 150 117 L 148 116 Z M 68 117 L 67 120 L 69 121 L 68 117 Z M 95 117 L 92 120 Q 91 122 94 121 L 96 118 L 95 117 Z M 103 117 L 103 119 Q 102 121 105 120 Q 106 118 107 121 L 104 122 L 105 124 L 109 125 L 106 126 L 108 126 Q 109 129 111 125 L 109 123 L 109 120 L 111 123 L 111 121 L 103 117 Z M 114 117 L 112 119 L 114 119 L 114 117 Z M 116 117 Q 114 120 117 119 L 116 117 Z M 142 117 L 140 119 L 143 120 L 144 121 L 142 117 Z M 82 118 L 79 122 L 81 126 L 81 124 L 81 122 Q 83 123 82 120 L 84 120 L 82 118 Z M 98 118 L 97 120 L 97 122 L 99 122 L 100 120 L 102 120 Q 103 117 100 118 L 98 118 Z M 136 118 L 137 120 Q 138 117 136 118 Z M 148 118 L 149 119 L 150 120 Q 151 117 148 118 Z M 64 119 Q 62 122 65 121 L 67 124 L 67 123 L 67 121 L 64 119 Z M 129 119 L 126 121 Q 127 123 129 121 L 130 123 L 131 121 L 129 119 Z M 135 119 L 134 120 Q 131 119 132 123 L 131 123 L 131 124 Q 134 125 133 122 L 135 122 L 135 119 Z M 91 120 Q 88 122 91 123 Q 94 122 91 120 Z M 95 120 L 95 122 L 97 121 L 95 120 Z M 124 120 L 125 122 Q 126 119 124 120 Z M 141 120 Q 139 123 142 122 L 141 120 Z M 51 121 L 49 123 L 50 124 L 52 123 L 51 121 Z M 75 121 L 73 123 L 76 124 L 77 122 L 75 121 Z M 151 121 L 148 123 L 151 123 L 151 121 Z M 83 122 L 84 125 L 85 123 L 83 122 Z M 97 122 Q 95 125 98 124 L 97 122 Z M 122 122 L 121 126 L 122 126 L 122 122 Z M 71 123 L 68 124 L 69 127 L 70 125 L 72 126 L 71 125 L 73 124 L 71 123 Z M 88 123 L 89 125 L 90 125 L 88 123 Z M 113 123 L 112 125 L 116 125 L 113 123 Z M 120 123 L 118 127 L 117 126 L 115 127 L 119 128 L 120 126 L 120 123 Z M 136 123 L 136 124 L 138 124 L 136 123 Z M 143 123 L 141 126 L 143 126 Q 146 125 143 123 Z M 47 124 L 44 126 L 45 128 L 47 127 Q 50 126 47 124 Z M 77 124 L 78 127 L 79 125 L 77 124 Z M 86 124 L 85 127 L 88 128 L 91 127 L 86 124 Z M 99 124 L 99 126 Q 98 128 101 127 L 101 125 L 99 124 Z M 134 124 L 130 126 L 128 125 L 127 127 L 125 127 Q 126 129 124 128 L 122 128 L 123 130 L 121 131 Q 122 128 120 129 L 120 131 L 118 134 L 120 135 L 119 135 L 119 139 L 118 138 L 115 140 L 119 140 L 120 147 L 118 145 L 116 147 L 118 147 L 116 150 Q 115 153 118 152 L 117 151 L 121 148 L 124 153 L 122 154 L 125 155 L 126 153 L 128 154 L 129 156 L 131 155 L 131 157 L 133 156 L 136 158 L 137 155 L 140 155 L 148 150 L 147 149 L 149 148 L 148 147 L 149 145 L 152 143 L 152 140 L 151 142 L 149 141 L 151 137 L 151 139 L 154 138 L 154 140 Q 158 141 157 139 L 156 139 L 155 136 L 153 137 Q 151 133 149 137 L 148 135 L 148 133 L 143 129 L 145 128 L 145 125 Q 144 128 140 127 L 139 124 L 138 126 L 134 124 Z M 147 124 L 147 126 L 149 125 L 147 124 Z M 82 126 L 82 128 L 84 127 L 82 126 Z M 96 126 L 96 127 L 98 127 L 96 126 Z M 114 126 L 114 129 L 111 130 L 115 130 L 114 126 Z M 41 127 L 40 129 L 42 128 L 41 127 Z M 37 128 L 39 131 L 39 130 L 37 128 Z M 75 128 L 78 132 L 77 130 Q 78 127 75 128 Z M 81 128 L 79 131 L 82 133 L 81 128 Z M 95 128 L 91 131 L 93 131 L 95 131 L 95 128 Z M 97 128 Q 95 131 98 130 L 97 128 Z M 148 128 Q 149 131 147 130 L 147 131 L 150 130 Q 151 127 148 128 Z M 41 129 L 41 131 L 43 130 L 41 129 Z M 89 129 L 89 131 L 91 130 L 89 129 Z M 108 129 L 107 132 L 110 133 L 109 132 L 110 130 L 108 129 Z M 85 130 L 83 133 L 85 132 L 85 130 Z M 116 130 L 115 132 L 117 131 L 116 130 Z M 40 131 L 41 133 Q 42 130 40 131 Z M 88 131 L 89 133 Q 90 130 88 131 Z M 97 131 L 96 134 L 99 135 Q 100 137 101 135 L 97 131 Z M 102 131 L 102 132 L 104 132 L 102 131 Z M 157 131 L 155 133 L 157 133 L 157 131 Z M 79 132 L 77 135 L 79 134 L 81 135 L 81 133 L 79 132 Z M 113 132 L 112 135 L 112 136 L 114 135 Q 116 136 115 134 L 114 134 L 113 132 Z M 86 133 L 85 135 L 87 136 L 86 133 Z M 107 134 L 107 135 L 109 135 L 107 134 Z M 37 135 Q 35 138 38 137 L 37 135 Z M 95 135 L 93 138 L 95 138 L 95 135 Z M 103 135 L 103 138 L 101 139 L 104 139 L 105 136 L 103 135 Z M 117 135 Q 117 138 114 137 L 115 139 L 117 138 Q 120 137 117 135 Z M 40 136 L 39 138 L 36 137 L 35 139 L 42 139 L 40 138 L 40 136 Z M 88 136 L 85 143 L 88 143 L 87 142 L 89 142 L 90 142 L 88 139 Q 90 137 88 136 Z M 110 136 L 108 138 L 110 139 L 110 136 Z M 82 137 Q 80 140 83 139 L 82 137 Z M 99 137 Q 99 141 101 138 L 99 137 Z M 85 138 L 83 140 L 85 140 L 85 138 Z M 107 138 L 105 140 L 107 140 L 109 143 L 110 141 L 107 138 Z M 80 139 L 80 142 L 81 142 Q 82 138 80 139 Z M 97 139 L 96 142 L 95 141 L 94 143 Q 96 146 97 143 L 97 139 Z M 42 140 L 40 142 L 42 142 L 42 140 Z M 79 140 L 78 142 Q 76 143 79 144 L 80 144 L 79 140 Z M 100 140 L 101 142 Q 102 139 100 140 Z M 105 141 L 103 143 L 107 143 Q 108 140 105 141 Z M 38 142 L 38 143 L 40 143 L 38 142 Z M 76 142 Q 74 145 77 144 L 76 142 Z M 93 142 L 92 145 L 93 145 L 93 142 Z M 112 142 Q 112 145 109 144 L 108 146 L 111 145 L 113 146 L 114 147 L 112 142 Z M 83 143 L 83 145 L 82 144 L 80 145 L 83 146 Q 84 148 85 146 Q 86 142 83 143 Z M 100 143 L 101 145 Q 102 142 100 143 Z M 117 143 L 115 145 L 117 145 L 117 143 Z M 156 143 L 155 146 L 154 148 Q 157 149 156 146 Q 158 144 156 143 Z M 36 144 L 38 146 Q 39 148 40 146 Q 39 143 38 145 L 36 144 Z M 87 145 L 86 147 L 88 148 L 87 145 Z M 104 146 L 103 149 L 105 149 L 106 147 L 104 146 Z M 75 147 L 74 150 L 75 150 L 75 147 Z M 80 147 L 78 149 L 81 149 L 80 147 Z M 89 147 L 90 150 L 89 150 L 89 151 Q 91 150 90 154 L 88 155 L 88 156 L 91 155 L 95 158 L 96 160 L 99 158 L 102 155 L 103 156 L 104 156 L 102 153 L 104 153 L 103 150 Q 97 152 98 149 L 96 147 L 94 150 L 91 149 Q 92 146 89 147 Z M 36 148 L 33 149 L 35 154 Q 38 155 37 153 Q 33 151 36 150 L 36 148 Z M 42 149 L 42 151 L 44 150 L 42 149 Z M 73 149 Q 71 152 74 151 L 73 149 Z M 77 149 L 74 152 L 76 152 L 79 151 L 77 149 Z M 82 149 L 80 151 L 82 151 L 82 149 Z M 86 149 L 86 151 L 88 150 L 86 149 Z M 110 149 L 108 152 L 110 151 L 110 149 Z M 111 149 L 111 151 L 113 150 L 111 149 Z M 121 149 L 120 152 L 121 152 L 121 149 Z M 38 150 Q 36 154 40 153 L 40 151 L 38 150 Z M 45 150 L 43 152 L 46 152 L 45 150 Z M 43 152 L 43 155 L 41 156 L 44 156 L 43 152 Z M 147 152 L 145 155 L 148 156 L 147 155 L 148 153 L 148 155 L 150 154 Q 153 155 152 153 L 151 153 L 147 152 Z M 81 153 L 81 155 L 85 155 L 81 153 Z M 86 153 L 87 155 Q 88 152 86 153 Z M 105 153 L 104 155 L 108 155 L 105 153 Z M 110 153 L 109 155 L 109 156 L 111 156 L 110 153 Z M 118 153 L 116 155 L 119 155 L 118 153 Z M 40 154 L 38 156 L 40 156 L 40 154 Z M 73 154 L 72 157 L 74 158 L 73 154 Z M 122 154 L 121 155 Q 118 154 119 157 L 121 156 L 123 157 L 124 158 Q 125 155 122 156 L 122 154 Z M 106 156 L 104 159 L 106 162 L 106 161 L 106 159 L 106 156 Z M 72 157 L 72 162 L 72 160 Q 74 158 72 157 Z M 92 157 L 90 159 L 92 161 L 92 160 Q 94 158 92 157 Z M 85 158 L 87 164 Q 89 163 87 162 L 88 160 L 85 158 Z M 102 158 Q 100 161 103 160 L 102 158 Z M 59 159 L 60 163 L 62 160 L 59 159 Z M 68 159 L 67 163 L 70 161 L 68 159 Z M 80 159 L 78 162 L 80 161 L 80 159 Z M 98 159 L 97 162 L 99 162 Q 100 158 98 159 Z M 118 159 Q 118 162 115 161 L 116 163 L 118 162 L 118 159 Z M 122 159 L 122 161 L 124 160 L 122 159 Z M 127 159 Q 124 163 128 162 L 127 159 Z M 84 160 L 82 163 L 84 162 L 84 160 Z M 96 161 L 92 166 L 91 165 L 90 165 Q 91 168 89 167 L 87 167 Q 88 169 82 168 L 80 164 Q 77 163 78 166 L 79 167 Q 76 166 76 163 L 74 162 L 71 163 L 69 163 Q 68 165 71 164 L 70 166 L 71 168 L 72 166 L 73 169 L 75 172 L 77 171 L 77 173 L 79 172 L 81 178 L 80 180 L 82 183 L 81 185 Q 80 187 83 186 L 82 188 L 84 188 L 85 191 L 83 191 Q 82 193 86 192 L 87 196 L 90 198 Q 89 201 92 200 L 92 198 Q 93 200 98 199 L 102 199 L 104 197 Q 106 198 105 196 L 105 194 L 109 188 Q 108 185 111 186 L 110 185 L 111 182 L 112 184 L 112 183 L 113 181 L 111 181 L 111 177 L 113 177 L 112 174 L 119 170 L 121 170 L 123 170 L 122 169 L 120 167 Q 124 164 120 162 L 118 163 Q 115 162 116 165 L 111 168 Q 103 170 105 165 L 103 166 L 102 164 L 101 166 L 96 161 Z M 121 161 L 122 163 Q 123 160 121 161 Z M 84 163 L 82 166 L 85 164 L 84 163 Z M 108 163 L 111 166 Q 114 167 113 165 L 112 165 L 108 163 Z M 69 164 L 65 167 L 70 169 L 68 167 L 69 166 L 69 164 Z M 85 165 Q 83 168 86 167 L 85 165 Z M 125 165 L 124 166 Q 121 165 122 168 L 125 167 L 125 165 Z M 126 165 L 126 167 L 128 166 L 126 165 Z M 69 170 L 70 174 L 71 174 Q 73 169 69 170 Z M 125 171 L 126 173 Q 127 170 125 171 Z M 122 172 L 123 173 L 124 174 Q 125 171 122 172 Z M 125 174 L 122 175 L 122 176 Q 125 177 126 175 L 125 174 Z M 71 175 L 72 177 L 74 176 L 71 175 Z M 77 176 L 77 180 L 77 179 Q 79 177 77 176 Z M 119 176 L 117 180 L 118 180 Q 117 177 120 178 L 119 176 Z M 126 176 L 126 179 Q 129 178 126 176 Z M 122 177 L 120 180 L 124 178 L 122 177 Z M 79 179 L 77 182 Q 79 185 80 182 L 79 179 Z M 119 180 L 114 182 L 116 183 L 115 183 L 113 183 L 114 185 L 116 184 L 116 186 L 121 184 L 118 183 L 121 182 L 119 180 Z M 122 180 L 124 183 L 124 182 L 122 180 Z M 125 180 Q 123 184 127 183 L 127 181 L 125 180 Z M 65 181 L 65 182 L 67 182 L 65 181 Z M 73 181 L 74 183 Q 75 180 73 181 Z M 70 182 L 65 184 L 69 185 L 72 184 L 70 182 Z M 74 184 L 72 186 L 73 188 L 75 188 L 74 184 Z M 123 186 L 121 189 L 124 187 L 125 188 L 126 188 L 123 186 Z M 129 186 L 130 188 L 131 188 L 129 186 Z M 65 187 Q 63 190 66 189 L 65 187 Z M 78 187 L 76 190 L 78 189 L 78 187 Z M 80 187 L 79 190 L 80 190 L 80 187 Z M 59 188 L 58 191 L 60 191 Q 61 187 59 188 Z M 64 189 L 61 191 Q 63 194 64 191 L 64 189 Z M 67 189 L 65 192 L 67 191 L 67 189 Z M 69 189 L 67 192 L 69 192 Q 72 191 69 189 Z M 118 189 L 116 190 L 116 191 L 119 190 L 118 189 Z M 131 189 Q 129 192 132 193 L 133 193 L 131 189 Z M 135 189 L 133 192 L 135 191 L 135 189 Z M 109 190 L 109 191 L 111 191 L 109 190 Z M 77 191 L 74 192 Q 72 196 76 195 L 75 194 L 78 192 L 77 191 Z M 113 191 L 113 193 Q 111 197 116 196 L 115 195 L 116 193 L 113 191 Z M 122 191 L 118 192 Q 115 194 118 195 L 118 194 L 120 194 L 122 193 L 122 191 Z M 81 192 L 81 194 L 83 193 L 81 192 Z M 112 192 L 110 194 L 111 196 L 112 196 L 112 192 Z M 58 193 L 56 195 Q 57 197 61 196 L 62 197 Q 63 194 60 195 L 60 193 L 59 195 L 58 193 Z M 77 193 L 76 196 L 78 198 L 79 195 Q 80 192 77 193 Z M 84 193 L 82 195 L 84 195 L 84 193 Z M 108 193 L 109 195 L 110 195 L 108 193 Z M 72 195 L 71 198 L 72 199 L 74 196 L 72 195 Z M 119 195 L 117 197 L 119 198 L 119 195 Z M 75 196 L 74 198 L 74 199 L 77 199 L 75 198 L 75 196 Z M 81 196 L 81 199 Q 84 198 81 196 Z M 128 196 Q 126 199 129 198 L 128 196 Z M 66 197 L 66 198 L 68 198 L 66 197 Z M 88 197 L 89 199 Q 90 196 88 197 Z M 107 197 L 103 199 L 104 201 L 107 199 L 108 200 L 107 197 Z M 115 197 Q 115 201 117 198 L 115 197 Z M 87 198 Q 85 201 88 200 L 87 198 Z M 113 198 Q 111 201 110 199 L 109 201 L 113 200 L 113 198 Z M 101 199 L 99 201 L 102 201 L 101 199 Z M 91 201 L 91 203 L 93 202 L 91 201 Z M 97 201 L 96 203 L 98 202 L 97 201 Z " /><path fill="rgb(253,218,1)" stroke="rgb(253,218,1)" stroke-width="1" opacity="1" d="M 140 101 L 142 101.5 L 140 102.5 L 140 101 Z " /><path fill="rgb(252,216,1)" stroke="rgb(252,216,1)" stroke-width="1" opacity="1" d="M 36.5 65 L 35 67.5 L 36.5 69 Q 40.9 70.5 40 67.5 L 38 67.5 Q 39.5 64.5 41 67.5 L 41.5 69 Q 43.3 66.3 45 70.5 L 45 72.5 Q 45.8 75.1 42.5 74 L 40 72.5 Q 40.8 76.3 38.5 77 L 39 75.5 L 40 70 L 35 70 L 35 71.5 L 36.5 71 Q 38.8 70.3 38 72.5 L 36 72.5 L 35.5 74 L 33.5 71 L 32 71.5 L 33.5 69 L 35 69.5 L 34 67.5 L 36.5 65 Z M 43 69 L 41 71 L 42 72 L 44 71 L 43 69 Z " /><path fill="rgb(252,216,1)" stroke="rgb(252,216,1)" stroke-width="1" opacity="1" d="M 156.5 65 L 156 66.5 Q 155.3 69.1 158 68 L 158 71.5 L 160 71.5 Q 158.5 74.5 157 71.5 L 154.5 68 Q 151.9 68.7 153 66 L 156.5 65 Z " /><path fill="rgb(252,216,1)" stroke="rgb(252,216,1)" stroke-width="1" opacity="1" d="M 146.5 68 L 147.5 70 L 146.5 68 Z " /><path fill="rgb(252,216,1)" stroke="rgb(252,216,1)" stroke-width="1" opacity="1" d="M 151.5 68 L 154 69 L 154.5 72 L 156 71.5 Q 154.5 74.5 153 71.5 L 151.5 68 Z " /><path fill="rgb(252,216,1)" stroke="rgb(252,216,1)" stroke-width="1" opacity="1" d="M 46.5 71 L 49 72.5 L 47.5 73 L 46.5 71 Z " /><path fill="rgb(252,216,1)" stroke="rgb(252,216,1)" stroke-width="1" opacity="1" d="M 151.5 71 L 153 74.5 L 149.5 77 L 149.5 76 L 152 74.5 L 151.5 71 Z " /><path fill="rgb(252,216,1)" stroke="rgb(252,216,1)" stroke-width="1" opacity="1" d="M 143.5 72 L 144 74 L 142 74.5 L 144 75.5 L 141 76 L 143.5 72 Z " /><path fill="rgb(252,216,1)" stroke="rgb(252,216,1)" stroke-width="1" opacity="1" d="M 149.5 72 L 150 73.5 L 146 76.5 L 149 80.5 L 148 80.5 L 146 77.5 L 145 77.5 L 144 80.5 L 144.5 82 Q 142.3 77.8 140 82.5 L 139.5 84 L 138.5 82 L 137 84.5 L 139 85 Q 137.9 87.7 140.5 87 L 142 87.5 L 141 85.5 Q 144.1 83.7 142.5 82 L 147.5 86 L 149 85.5 Q 147.8 88.3 146.5 86 L 143.5 84 Q 140.3 85.8 144 87.5 L 143 91.5 L 144.5 94 L 146 93.5 L 145.5 95 L 148.5 93 L 148 96.5 L 147.5 98 L 147 96 L 144.5 95 Q 141.3 96.8 145 98.5 L 146 100.5 L 141 104.5 L 145 106.5 Q 145.7 109.1 143 108 Q 144.1 105.3 141.5 106 L 141.5 108 L 140 107.5 L 141 109.5 L 138.5 108 L 137 108.5 L 140.5 113 L 142.5 114 L 143 111.5 L 142 109.5 L 143 109.5 L 143.5 111 L 144.5 109 L 145 110.5 L 144 112.5 L 148.5 113 L 150 111.5 Q 149.3 109.3 151.5 110 L 150 112.5 L 151.5 114 L 153 113.5 L 150 116.5 L 150 118.5 L 148.5 121 L 146.5 120 L 145 120.5 Q 149 118.5 145 116.5 L 146 113.5 L 144.5 114 L 143 114.5 Q 145.5 116 142 117.5 L 143.5 119 L 145 118.5 L 143.5 121 L 141.5 120 L 141.5 122 L 140 122.5 L 140.5 124 Q 137.8 122.8 140 121.5 L 138 118.5 Q 140.5 120.3 143 115.5 L 140.5 114 L 140.5 116 Q 138.3 116.8 139 114.5 L 137 113.5 L 138 116.5 L 135 117.5 L 137 118 L 138 120.5 L 135 119.5 L 134.5 122 L 133 121.5 Q 131.9 124.8 134.5 124 L 137.5 123 L 139.5 126 Q 136.9 126.7 138 124 L 135.5 124 L 133.5 125 L 129 122.5 L 128.5 121 L 127.5 124 L 125.5 120 L 123.5 123 L 123.5 120 L 125 119.5 L 123 118.5 L 124.5 118 L 127 118.5 L 126.5 120 L 128.5 119 L 131 120.5 L 130 123 L 132 123 Q 130.5 119.2 133.5 120 L 134 117.5 L 132.5 116 L 129.5 117 L 129.5 115 Q 125.3 114.3 124.5 117 L 124 115.5 Q 125 113 129.5 114 L 131.5 115 L 133 114.5 L 133.5 116 L 134.5 112 L 135.5 114 Q 140 112 136.5 110 L 135 110.5 Q 137.5 109 134 107.5 L 133.5 106 Q 130.8 107.3 133 108.5 L 134 110.5 L 132.5 113 L 131.5 110 L 129.5 109 L 127.5 113 L 124.5 112 L 122.5 115 Q 124.2 113 120.5 111 L 118.5 114 L 120 114.5 L 116.5 116 L 114.5 116 Q 111.2 114.9 112 117.5 L 114 117.5 L 114.5 119 L 115.5 117 Q 117.3 120.8 119 117.5 L 119.5 116 L 120 121 L 117 121.5 L 120 123.5 L 120.5 126 L 121.5 122 L 122 125.5 L 120.5 128 L 119.5 126 L 119 128 L 115.5 127 L 115 130 L 117.5 129 L 119.5 129 Q 122.1 128.2 121 131.5 L 120 134 Q 117.3 135.1 118 132.5 Q 116.8 129.8 115.5 132 L 114 131.5 L 114.5 130 L 111 129.5 L 114 128.5 L 113 126.5 L 116 125.5 L 112.5 125 L 111.5 128 L 107.5 126 L 106 125.5 L 109 124.5 L 105 124 L 104.5 122 Q 101.8 123.3 104 124.5 L 105 126.5 L 104.5 129 L 101.5 126 L 100.5 127 Q 98.3 127.8 99 125.5 L 96 124 L 95 120 Q 97.7 121.1 97 118.5 L 99.5 118 L 102 117.5 L 100 116.5 L 102 115.5 L 101 112.5 L 102.5 110 L 103.5 112 Q 100.9 111.3 102 114 L 104.5 113 L 105.5 114 L 110 109.5 L 109 107 L 105.5 108 L 103.5 107 L 103.5 109 L 101.5 109 L 98.5 110 L 98.5 109 L 102 108 L 101.5 106 L 99.5 106 L 93.5 102 L 92.5 104 Q 94.8 103.3 94 105.5 L 94 107.5 L 95.5 110 L 97 109.5 Q 96.2 112.1 99.5 111 L 99.5 112 L 96.5 111 L 96 112.5 L 96.5 114 L 93.5 115 L 93.5 114 L 95 113.5 L 91 113 Q 92.3 110 88.5 111 L 88.5 110 L 91.5 111 L 93 110.5 Q 92.3 113.1 95 112 L 91.5 107 L 90 107.5 L 90.5 109 L 86.5 108 L 86.5 110 L 84 109.5 L 84.5 108 Q 82.3 108.8 83 106.5 L 85 105.5 Q 82.8 106.8 85.5 108 L 88 107 L 88.5 105 L 89.5 107 L 91 104 L 87 102.5 L 90 101.5 L 87.5 100 L 85 100.5 L 82.5 105 L 78.5 102 L 77 102.5 L 81 100.5 L 79 99.5 L 80.5 99 L 83.5 101 Q 86.5 99.5 83.5 98 L 82 98.5 L 82 96.5 L 82.5 95 L 83.5 97 Q 85.3 93.3 87 96.5 L 86.5 98 L 85 97.5 Q 84.2 100.1 87.5 99 Q 90.2 97.7 88 96.5 L 86.5 93 L 85 93.5 L 88 91.5 Q 85.5 93 89 94.5 L 89.5 97 L 91 93 L 93 93.5 L 92 95.5 L 93.5 95 Q 95.8 95.8 95 93.5 L 91 90.5 L 92.5 91 Q 93.9 93.6 98.5 93 L 98.5 92 L 95 90.5 L 98.5 91 L 100 89.5 L 101.5 87 L 102 89 L 104.5 88 L 103.5 90 L 99 91.5 Q 103.3 93.8 101.5 96 L 104.5 98 L 104.5 99 L 101 98 L 100.5 96 L 99.5 98 L 95.5 95 L 88 99.5 L 92 100.5 L 91.5 102 L 94.5 101 L 96.5 101 L 98.5 102 L 99.5 100 L 98 99.5 L 99.5 99 L 102.5 100 L 104 100.5 Q 102.7 103.3 101.5 101 L 100 101.5 L 101 103.5 L 100 103.5 L 99.5 102 L 97 103.5 L 100.5 106 L 103 104.5 L 102.5 103 L 104.5 103 L 106 102.5 L 105.5 101 L 107.5 102 L 106 99.5 L 107 98.5 L 107.5 97 L 108.5 100 Q 110.8 100.8 110 98.5 L 111.5 99 L 115 98 L 114 102 L 117 101.5 L 116.5 100 L 119 98.5 L 116 97.5 L 116.5 96 L 113.5 94 L 112.5 97 L 110.5 96 L 109 96.5 L 113.5 93 L 116.5 95 L 118.5 92 Q 121.3 93.3 119 94.5 L 120 96.5 L 119.5 98 Q 122.8 96.9 122 99.5 L 123 99.5 Q 122.3 96.9 125 98 L 126 102 L 131.5 104 L 132.5 102 L 133.5 104 L 135.5 103 L 138 103.5 L 137 105.5 L 139.5 107 L 140.5 105 Q 137.9 105.8 139 102.5 L 136 101.5 Q 135.3 99.3 137.5 100 L 139.5 100 L 143 99.5 L 142.5 97 L 139.5 99 L 138 94.5 L 139.5 93 Q 141.3 96.8 143 93.5 L 141 92.5 Q 143.5 91 140 89.5 Q 140.8 86.9 137.5 88 L 135.5 87 L 134 87.5 L 137 82.5 L 136.5 81 L 138 81.5 L 137.5 79 L 136 79.5 Q 137.7 75.2 139.5 78 L 141.5 77 L 140.5 79 L 139 79.5 Q 140.8 82.8 142.5 79 Q 144.8 79.8 144 77.5 L 145 75 Q 147.7 76.1 147 73.5 L 149 73.5 L 149.5 72 Z M 99 94 Q 97 97 100 96 L 99 94 Z M 140 94 L 139 97 L 141 97 L 140 94 Z M 120 99 L 121 101 L 122 101 L 120 99 Z M 111 100 L 110 102 Q 114 104 110 106 L 113 106 L 114 102 L 111 100 Z M 119 100 L 118 102 L 118 104 L 118 105 L 117 103 L 115 105 L 118 109 L 120 108 L 119 107 L 119 106 L 122 107 L 123 110 L 125 109 Q 124 106 127 107 L 126 109 Q 128 112 130 108 L 132 109 L 132 107 L 130 104 Q 128 107 127 105 L 125 106 Q 122 105 124 104 L 122 102 L 122 104 Q 123 106 121 105 L 119 103 Q 121 101 119 100 Z M 140 101 L 140 103 L 142 102 L 140 101 Z M 109 102 L 110 104 L 111 104 L 109 102 Z M 125 102 L 124 105 L 126 105 Q 127 101 125 102 Z M 107 103 L 109 106 L 109 105 L 107 103 Z M 105 104 L 104 106 L 106 105 L 105 104 Z M 115 105 L 113 107 L 116 107 L 115 105 Z M 136 106 L 137 108 Q 138 105 136 106 Z M 113 107 L 111 111 L 116 109 L 113 107 Z M 121 108 L 117 110 Q 116 113 119 112 Q 120 109 122 111 Q 123 107 121 108 Z M 115 110 L 112 114 L 113 115 L 115 114 Q 113 112 116 111 L 115 110 Z M 127 110 L 125 112 L 127 112 L 127 110 Z M 110 111 L 110 113 L 109 112 L 105 116 Q 103 114 102 117 L 107 118 L 108 115 L 110 117 L 107 119 L 111 120 Q 113 119 111 118 L 112 116 L 109 115 L 111 114 Q 112 110 110 111 Z M 150 113 Q 150 116 146 115 L 147 117 L 150 116 Q 153 115 150 113 Z M 148 117 L 148 118 L 150 118 L 148 117 Z M 103 118 L 102 120 L 101 119 L 100 121 Q 103 126 105 121 L 103 120 L 103 118 Z M 113 119 L 111 123 Q 109 124 112 125 L 112 124 L 114 120 L 113 119 Z M 110 121 L 108 123 L 110 123 L 110 121 Z M 98 122 L 99 124 L 103 126 L 103 125 Q 101 120 100 123 L 98 122 Z M 115 122 L 113 124 L 116 124 L 119 125 L 119 123 L 115 122 Z " /><path fill="rgb(252,216,1)" stroke="rgb(252,216,1)" stroke-width="1" opacity="1" d="M 156.5 73 L 161 76.5 L 162 78.5 L 160.5 79 L 159 78.5 Q 159.8 80.8 157.5 80 L 157.5 78 L 156 77.5 L 157.5 77 L 159 77.5 L 157.5 75 L 155.5 76 L 155.5 75 L 157 74.5 L 156.5 73 Z " /><path fill="rgb(252,216,1)" stroke="rgb(252,216,1)" stroke-width="1" opacity="1" d="M 37.5 74 L 36 76.5 L 37.5 78 L 39 78.5 L 37.5 79 L 35 75 L 37.5 74 Z " /><path fill="rgb(252,216,1)" stroke="rgb(252,216,1)" stroke-width="1" opacity="1" d="M 41.5 75 L 43.5 76 L 49 75 Q 47.9 77.7 50.5 77 L 52.5 76 L 52.5 77 L 49.5 79 L 49.5 80 L 53 80.5 L 48.5 81 L 42.5 77 L 41.5 75 Z M 45 76 L 46 77 L 47 78 Q 48 75 45 76 Z " /><path fill="rgb(252,216,1)" stroke="rgb(252,216,1)" stroke-width="1" opacity="1" d="M 31.5 76 L 34 76.5 L 33.5 78 Q 35.8 77.3 35 79.5 L 32.5 80 L 31 80.5 L 34 83.5 L 33.5 86 L 31 84.5 L 33 83.5 L 30 82.5 L 30 80.5 Q 29.2 77.9 32.5 79 L 32.5 78 Q 29.7 78.7 31.5 76 Z " /><path fill="rgb(252,216,1)" stroke="rgb(252,216,1)" stroke-width="1" opacity="1" d="M 152.5 77 L 155 77.5 L 152.5 78 L 152.5 77 Z " /><path fill="rgb(252,216,1)" stroke="rgb(252,216,1)" stroke-width="1" opacity="1" d="M 54.5 78 L 55.5 81 L 58 79.5 Q 54.3 81.3 57.5 83 L 59.5 82 L 59 83.5 L 58.5 85 L 57 84.5 L 56.5 86 L 56 84.5 Q 58.3 83.3 55.5 82 L 54 82.5 Q 56.8 84.2 52.5 86 L 51 86.5 L 51 88.5 L 53 91.5 L 51.5 94 L 48.5 93 L 47 94.5 L 48.5 98 Q 54.5 99.5 56 96.5 Q 55.3 94.3 57.5 95 L 54.5 99 Q 48.6 96.9 50 101.5 L 48 102.5 L 49 100.5 L 47.5 101 L 45 99.5 L 48 98.5 L 46 98 L 47 92.5 L 43.5 95 L 37.5 98 L 37.5 96 Q 34.2 97.1 35 94.5 L 38 94.5 L 38.5 96 L 46 91.5 L 44.5 91 L 42 92.5 L 41 90.5 L 44 86 L 41.5 85 L 41 86.5 L 41.5 88 L 38.5 89 L 37 88.5 L 33.5 94 L 34 92.5 Q 34.8 90.3 32.5 91 L 31 91.5 L 30.5 90 Q 29.3 92.3 28 89.5 L 30 89.5 L 29 87.5 L 30.5 88 L 33.5 90 L 34 88.5 L 33.5 87 L 35.5 90 L 37 87.5 L 36.5 86 L 40 88 Q 41 85 38 86 L 38 82.5 L 37 82.5 L 35.5 85 L 35 83.5 L 35.5 81 L 37.5 80 L 38.5 82 L 39.5 80 L 42 81.5 L 42.5 80 L 45 84 L 48.5 83 L 52.5 85 L 54 81.5 L 54.5 78 Z M 42 82 Q 41 85 44 84 Q 45 81 42 82 Z M 46 85 L 47 87 L 50 86 L 46 85 Z M 46 87 L 43 91 L 47 89 L 48 90 L 47 90 L 48 92 L 50 91 L 49 89 L 46 87 Z " /><path fill="rgb(252,216,1)" stroke="rgb(252,216,1)" stroke-width="1" opacity="1" d="M 44.5 79 L 45.5 81 L 44.5 79 Z " /><path fill="rgb(252,216,1)" stroke="rgb(252,216,1)" stroke-width="1" opacity="1" d="M 150.5 79 L 154.5 79 L 156 79.5 Q 153.2 81.3 157.5 83 L 160 81.5 L 160.5 80 Q 163.3 81.3 161 82.5 L 163 87.5 L 160.5 91 L 157.5 90 L 156 89.5 L 158 88.5 L 155 88 L 154.5 86 L 151.5 87 Q 148.9 87.8 150 84.5 L 146 81.5 L 147.5 82 L 149.5 83 L 151 82.5 L 150.5 84 L 155 81.5 L 153.5 81 L 152.5 82 L 150.5 79 Z M 157 83 L 155 86 L 157 85 L 157 83 Z M 153 84 L 154 86 Q 155 83 153 84 Z M 159 84 L 158 86 L 161 85 L 159 84 Z M 160 86 L 161 89 L 162 87 L 160 86 Z " /><path fill="rgb(252,216,1)" stroke="rgb(252,216,1)" stroke-width="1" opacity="1" d="M 91.5 83 L 93 83.5 L 91 84.5 L 91.5 86 L 90 85.5 L 91 88.5 L 89.5 92 L 86.5 87 L 84 88.5 L 84.5 90 L 83 86.5 L 83.5 84 L 86 84.5 L 86.5 86 L 87.5 84 L 88 85.5 L 87.5 87 L 89 87 Q 87.5 83.3 90.5 84 L 91.5 83 Z " /><path fill="rgb(252,216,1)" stroke="rgb(252,216,1)" stroke-width="1" opacity="1" d="M 95.5 83 L 98 84.5 L 96 85.5 L 96.5 84 L 95.5 83 Z " /><path fill="rgb(252,216,1)" stroke="rgb(252,216,1)" stroke-width="1" opacity="1" d="M 99.5 83 L 102.5 84 L 104.5 84 L 107.5 86 L 108 84 L 112 86.5 L 112 88.5 L 111 91.5 L 113 91.5 Q 112.3 93.8 108.5 93 L 107.5 91 Q 109.8 91.8 109 89.5 L 107.5 90 L 105.5 91 L 106 89.5 L 107 86.5 L 104 85 L 103.5 87 L 102.5 85 L 99 85.5 L 99.5 83 Z M 110 87 L 109 89 L 111 90 L 110 87 Z " /><path fill="rgb(252,216,1)" stroke="rgb(252,216,1)" stroke-width="1" opacity="1" d="M 80.5 84 L 81 86.5 L 79.5 86 Q 76.9 85.2 78 88.5 L 79.5 88 Q 83.3 87 82 90 Q 79 88.8 80 92.5 L 80.5 94 L 78 95.5 L 81 96.5 L 74 100.5 L 75.5 101 L 77 100.5 L 75.5 103 L 73.5 101 Q 71.8 104.1 70 102.5 Q 70.8 104.8 68.5 104 L 69 102.5 Q 69.8 100.3 67.5 101 L 66.5 104 Q 63 102 67.5 100 Q 70.8 101.1 70 98.5 L 68 97.5 L 67.5 99 L 66 96 L 64 96.5 L 64.5 98 Q 63 93.5 57 93.5 L 60 93 Q 58.9 90.3 61.5 91 L 63 90.5 Q 63.7 93.1 61 92 L 61 94 Q 63.7 92.9 63 95.5 L 64 95.5 L 65 93.5 L 64 91.5 L 64.5 89 L 65.5 90 L 68 88.5 L 65 92.5 L 69.5 96 Q 71.3 92.3 73 95.5 L 71 96.5 L 73 97.5 L 71 98 L 71.5 100 L 74 99 L 74.5 96 Q 75.8 98.3 77 95.5 Q 76.3 93.3 78.5 94 L 78.5 93 L 76 91.5 L 77.5 92 Q 79.8 92.8 79 90.5 Q 77.8 87.8 76.5 90 L 74.5 89 L 72 90.5 L 74 91 L 75 93.5 L 73 94 L 72.5 92 Q 71.3 94.3 70 91.5 L 69.5 90 L 68 90.5 L 70.5 89 Q 71.8 91.3 73 88.5 L 74.5 86 L 75.5 89 L 77 88.5 L 77 86.5 Q 76.2 83.9 79.5 85 L 80.5 84 Z " /><path fill="rgb(252,216,1)" stroke="rgb(252,216,1)" stroke-width="1" opacity="1" d="M 117.5 84 Q 115.9 85.8 119 87.5 L 120.5 91 L 121 89.5 L 120 87 L 122 87.5 L 121.5 89 L 124.5 88 L 124 89.5 L 124.5 91 Q 125.8 88.8 127 91.5 Q 125 89.8 123 93.5 L 125 94 Q 123.8 97 127.5 96 L 129 95.5 Q 125 97.5 129 99.5 L 129.5 101 L 132.5 99 L 131.5 101 L 129.5 102 L 127 100.5 L 128 99.5 L 123.5 95 L 122.5 97 L 122 95.5 L 123 94.5 L 119.5 91 Q 116.9 91.7 118 89 L 114.5 89 L 113 89.5 L 114.5 87 Q 116.8 87.8 116 85.5 L 117.5 84 Z M 122 91 Q 122 95 124 92 L 122 91 Z " /><path fill="rgb(252,216,1)" stroke="rgb(252,216,1)" stroke-width="1" opacity="1" d="M 92.5 87 L 93.5 89 L 98.5 87 L 98.5 88 L 93.5 90 L 92.5 87 Z " /><path fill="rgb(252,216,1)" stroke="rgb(252,216,1)" stroke-width="1" opacity="1" d="M 145.5 87 L 148.5 89 L 150.5 89 L 152.5 88 L 154 90.5 L 152.5 91 L 149.5 90 L 149.5 92 L 147.5 92 L 145 90.5 L 146 88.5 L 145.5 87 Z M 146 89 Q 145 92 148 91 Q 149 88 146 89 Z " /><path fill="rgb(252,216,1)" stroke="rgb(252,216,1)" stroke-width="1" opacity="1" d="M 163.5 89 L 162.5 91 L 163.5 89 Z " /><path fill="rgb(252,216,1)" stroke="rgb(252,216,1)" stroke-width="1" opacity="1" d="M 39.5 90 L 40 91.5 L 38 92.5 L 39.5 90 Z " /><path fill="rgb(252,216,1)" stroke="rgb(252,216,1)" stroke-width="1" opacity="1" d="M 129.5 90 L 134 92 L 132.5 95 L 131.5 92 L 129.5 93 L 129.5 90 Z " /><path fill="rgb(252,216,1)" stroke="rgb(252,216,1)" stroke-width="1" opacity="1" d="M 102.5 91 L 105 92.5 L 103.5 93 L 102.5 91 Z " /><path fill="rgb(252,216,1)" stroke="rgb(252,216,1)" stroke-width="1" opacity="1" d="M 114.5 91 L 117 91.5 Q 114.9 94.8 114.5 91 Z " /><path fill="rgb(252,216,1)" stroke="rgb(252,216,1)" stroke-width="1" opacity="1" d="M 155.5 91 L 158 92.5 L 156.5 93 L 155.5 91 Z " /><path fill="rgb(252,216,1)" stroke="rgb(252,216,1)" stroke-width="1" opacity="1" d="M 68.5 92 L 69.5 94 Q 66.7 94.7 68.5 92 Z " /><path fill="rgb(252,216,1)" stroke="rgb(252,216,1)" stroke-width="1" opacity="1" d="M 159.5 92 L 160.5 94 L 159.5 92 Z " /><path fill="rgb(252,216,1)" stroke="rgb(252,216,1)" stroke-width="1" opacity="1" d="M 106.5 94 L 108 94.5 L 104.5 97 L 106.5 94 Z " /><path fill="rgb(252,216,1)" stroke="rgb(252,216,1)" stroke-width="1" opacity="1" d="M 136.5 94 L 137 95.5 L 134 97.5 L 136.5 94 Z " /><path fill="rgb(252,216,1)" stroke="rgb(252,216,1)" stroke-width="1" opacity="1" d="M 150.5 94 Q 152 97.5 153.5 95 L 156 96.5 L 154.5 96 L 152.5 97 L 151 96.5 L 152.5 99 L 154 98.5 Q 152 102 150 97.5 L 151 95.5 L 150.5 94 Z " /><path fill="rgb(252,216,1)" stroke="rgb(252,216,1)" stroke-width="1" opacity="1" d="M 49.5 95 L 51.5 96 L 53 95.5 Q 53.8 97.8 51.5 97 L 49.5 95 Z " /><path fill="rgb(252,216,1)" stroke="rgb(252,216,1)" stroke-width="1" opacity="1" d="M 59.5 95 L 60.5 97 L 59 97.5 L 61 98.5 L 58 99 L 59.5 95 Z " /><path fill="rgb(252,216,1)" stroke="rgb(252,216,1)" stroke-width="1" opacity="1" d="M 130.5 95 L 133 96 L 132.5 98 L 130 97 L 130.5 95 Z " /><path fill="rgb(252,216,1)" stroke="rgb(252,216,1)" stroke-width="1" opacity="1" d="M 43.5 96 L 42.5 98 L 43.5 96 Z " /><path fill="rgb(252,216,1)" stroke="rgb(252,216,1)" stroke-width="1" opacity="1" d="M 40.5 97 L 41 98.5 L 39 99.5 L 40.5 97 Z " /><path fill="rgb(252,216,1)" stroke="rgb(252,216,1)" stroke-width="1" opacity="1" d="M 94.5 97 L 96 97.5 L 95.5 99 L 97 99.5 L 94.5 100 Q 91.5 98.5 94.5 97 Z " /><path fill="rgb(252,216,1)" stroke="rgb(252,216,1)" stroke-width="1" opacity="1" d="M 62.5 99 L 64.5 100 L 66 99.5 L 63 101.5 L 64 104.5 L 65 108.5 L 63.5 108 L 62 108.5 L 63 111.5 L 61.5 113 L 62 109.5 L 60.5 108 L 58.5 109 L 58.5 108 Q 61.1 108.7 60 106 L 56 107.5 L 56.5 109 L 54.5 108 L 53 108.5 Q 51.9 105.2 54.5 106 L 54.5 105 L 52.5 104 L 51 104.5 L 53.5 103 L 55 103.5 L 54 100.5 L 55.5 101 Q 57.8 100.3 57 102.5 Q 53.3 104.3 56.5 106 Q 58.8 106.8 58 104.5 L 62.5 99 Z M 61 104 L 62 108 L 63 105 L 61 104 Z " /><path fill="rgb(252,216,1)" stroke="rgb(252,216,1)" stroke-width="1" opacity="1" d="M 58 100 L 60 100.5 L 58 101.5 L 58 100 Z " /><path fill="rgb(252,216,1)" stroke="rgb(252,216,1)" stroke-width="1" opacity="1" d="M 46.5 102 L 47 103.5 L 43.5 106 L 42.5 104 L 44.5 104 Q 47 104.7 46.5 102 Z " /><path fill="rgb(252,216,1)" stroke="rgb(252,216,1)" stroke-width="1" opacity="1" d="M 49.5 104 L 50.5 107 L 52 106.5 L 51.5 109 L 49 107.5 L 50 109.5 L 49 114 Q 51.7 112.9 51 115.5 L 53.5 116 Q 56.5 116.7 55 113 L 52.5 114 L 52.5 112 L 50.5 113 L 51 111.5 L 51.5 110 L 54.5 112 L 57 110.5 L 56 114.5 L 58 114.5 L 55 116.5 L 58 118 L 60 114.5 L 58.5 112 L 63 115.5 Q 62.3 113.3 64.5 114 L 63 116.5 L 63.5 119 L 66 117.5 L 64.5 120 Q 68.3 121.3 67 117.5 L 67 115.5 Q 68.1 111.3 64 113 L 64 110 L 66 110.5 L 65.5 112 Q 68.1 112.8 67 109.5 L 68 109.5 L 68.5 111 L 70 108 Q 66.2 109 65 106.5 L 68.5 107 L 71 105.5 L 70 107.5 L 72.5 108 L 75 107.5 L 72 105.5 L 72.5 104 L 73.5 106 L 74.5 104 L 75 106 Q 78.8 107.5 78 104.5 L 80 105.5 Q 77.5 107 81 108.5 L 81.5 111 L 82.5 109 L 83 110.5 L 82.5 113 L 81 112.5 L 80 114.5 L 81 116.5 L 79 115.5 L 80 113.5 L 78.5 113 L 76 114.5 L 77 112 L 81 111.5 L 78.5 107 L 72 109 L 72.5 111 Q 74.3 108.3 76 112.5 Q 72.5 114 75 115.5 L 75.5 117 L 77.5 116 L 80.5 120 L 81.5 118 L 83.5 119 L 82.5 116 Q 84.8 115.3 84 117.5 L 85 117.5 Q 86.1 114.2 83.5 115 L 83.5 114 L 86 115.5 Q 86.5 119.5 83.5 120 L 80.5 122 L 81 123.5 L 80 127.5 L 82 132.5 L 79.5 136 L 76.5 135 L 77.5 138 L 74.5 133 Q 72.3 132.3 73 134.5 L 73.5 136 L 72 133.5 L 72.5 132 Q 70.3 132.8 71 130.5 L 73 129.5 L 72.5 131 L 75 129.5 L 74.5 128 Q 77.8 126.9 77 129.5 L 78 129.5 L 79 126.5 L 75.5 127 L 72.5 124 L 71 124.5 L 73 127.5 L 72 127.5 Q 72.8 125.3 70.5 126 L 69 125.5 L 68 127.5 L 68.5 129 L 65.5 125 L 63.5 125 L 55.5 125 L 54 123.5 L 54.5 121 L 57.5 123 L 58 121.5 L 56.5 119 L 52 120.5 L 53 118 L 55 117.5 L 52.5 116 L 49 117.5 L 48.5 119 L 46.5 116 L 45 116.5 L 44.5 115 L 43.5 117 L 40 114.5 Q 38.9 111.2 41.5 112 L 43.5 111 L 44.5 112 L 48 108.5 L 47.5 107 Q 45.8 110.1 44 108.5 Q 44.7 111.5 41 110 L 42.5 107 Q 44 109.5 45.5 106 L 49.5 104 Z M 71 110 L 68 113 L 70 113 Q 71 110 73 114 L 75 113 L 71 110 Z M 43 112 L 41 114 L 44 115 L 46 115 L 48 114 Q 47 111 46 113 L 43 112 Z M 71 113 L 68 118 L 69 120 Q 68 122 71 121 Q 69 119 72 118 Q 73 114 71 113 Z M 61 115 L 59 117 Q 58 119 61 118 L 62 119 L 61 115 Z M 74 115 L 73 118 Q 77 119 74 121 L 78 123 L 77 122 L 76 124 Q 78 127 79 124 L 79 122 L 74 115 Z M 77 117 L 79 120 L 79 119 L 77 117 Z M 73 118 Q 70 120 73 121 Q 76 120 73 118 Z M 59 119 Q 59 123 61 120 L 59 119 Z M 63 119 L 61 123 L 61 124 L 65 123 Q 66 120 63 121 L 63 119 Z M 68 120 Q 65 121 67 123 L 66 125 L 68 127 L 68 124 L 73 123 L 72 121 L 69 123 L 68 120 Z M 74 123 L 76 126 L 76 125 L 74 123 Z M 76 130 L 74 132 L 76 132 L 77 134 Q 80 132 76 130 Z M 79 130 L 78 132 L 81 133 L 79 130 Z " /><path fill="rgb(252,216,1)" stroke="rgb(252,216,1)" stroke-width="1" opacity="1" d="M 145.5 104 L 150 104.5 L 148.5 107 L 147.5 105 Q 145.7 107.5 145.5 104 Z " /><path fill="rgb(252,216,1)" stroke="rgb(252,216,1)" stroke-width="1" opacity="1" d="M 95 106 L 97 106.5 L 95 107.5 L 95 106 Z " /><path fill="rgb(252,216,1)" stroke="rgb(252,216,1)" stroke-width="1" opacity="1" d="M 149.5 108 L 147.5 111 L 146 110.5 L 149.5 108 Z " /><path fill="rgb(252,216,1)" stroke="rgb(252,216,1)" stroke-width="1" opacity="1" d="M 105.5 109 L 106.5 111 L 105.5 109 Z " /><path fill="rgb(252,216,1)" stroke="rgb(252,216,1)" stroke-width="1" opacity="1" d="M 84.5 111 L 88 112.5 L 88.5 114 L 89.5 112 L 90 113.5 L 88.5 116 L 92 116.5 Q 89.8 117.8 92.5 119 L 93.5 116 L 95.5 117 L 98 116 L 99.5 113 L 99 114.5 L 97.5 117 L 94 119.5 Q 94.8 121.8 92.5 121 L 92.5 122 L 95 123.5 L 93 126.5 L 95 130.5 L 94.5 133 L 90.5 130 L 88 133.5 L 88.5 135 L 87 134.5 L 88.5 137 L 91 135.5 L 90 138.5 L 89 140.5 L 89.5 142 L 85 143 L 83.5 147 L 81.5 146 Q 78.5 147.5 81.5 149 L 83 148.5 L 82 150.5 L 84.5 151 Q 86.8 151.8 86 149.5 L 85 147.5 L 87.5 144 L 88 146.5 L 87.5 148 L 86 147.5 Q 85.3 149.8 87.5 149 L 89.5 150 L 89 148.5 Q 88.3 146.3 90.5 147 L 89 144.5 L 90.5 143 L 91.5 146 L 93 145.5 L 91 141.5 L 93 142.5 L 93.5 145 Q 96.3 143.8 94 142.5 L 94.5 141 L 96 141.5 L 95.5 139 L 94 139.5 L 94.5 138 L 91.5 140 L 94 136.5 L 92.5 134 L 91 133.5 L 92.5 133 L 95.5 138 L 97 136.5 L 96 133.5 L 96.5 131 Q 98.3 134.1 100 132.5 L 99.5 134 L 101.5 133 L 99.5 136 L 97.5 135 L 98.5 137 L 102.5 138 L 102 136.5 L 103.5 133 L 105 136.5 L 104 139 L 100.5 138 L 97 139.5 L 98 143.5 L 98 145.5 L 97 147.5 L 97.5 149 L 93.5 148 Q 93 151.5 88.5 151 Q 87 148.5 85.5 152 L 83 153.5 L 84.5 154 L 87 153 Q 85.9 155.7 88.5 155 L 88.5 153 L 93 158.5 L 90.5 162 L 89 161.5 L 91 161 L 89 157.5 L 89.5 156 L 86.5 155 L 83 159.5 L 84 161.5 L 83.5 163 L 85 163.5 Q 82.8 164.8 85.5 166 Q 88.3 164.8 86 163.5 L 85 158 L 88 159.5 L 87 161.5 L 91 164.5 L 90.5 166 L 90 164 L 87 165.5 L 87.5 167 L 85.5 167 Q 83.3 167.8 84 165.5 L 82.5 166 L 81 165.5 Q 84.5 164 82 162.5 L 81.5 161 L 80 164.5 L 79.5 167 L 78 164 L 80 163.5 L 78 160.5 L 80 158.5 L 78.5 156 Q 82.8 157.8 80 159.5 L 80.5 161 L 85 155.5 L 81 155 L 80.5 153 L 76.5 156 L 77.5 154 L 79 153.5 Q 77.3 149.3 75.5 152 L 72 151 L 72.5 149 L 74 149.5 Q 75.1 146.2 72.5 147 L 71.5 145 L 75 147.5 L 75.5 150 L 77.5 150 L 79 150.5 Q 76.8 151.8 79.5 153 L 81.5 153 L 83 152.5 L 80 150.5 L 80.5 149 L 78 148.5 Q 83.3 146.3 79.5 144 L 77.5 145 L 75 144 L 74 141.5 L 78 141.5 L 79.5 139 Q 81.8 139.8 81 137.5 L 83.5 137 L 85 138.5 Q 85.8 140.8 83.5 140 L 81 139 L 82 142.5 L 80 141.5 L 79.5 140 L 79 142.5 L 82.5 145 L 83 143 L 85 142.5 L 84.5 141 L 86 141.5 L 87 136.5 L 85 133.5 L 89 131 L 88.5 129 L 87 129.5 L 87.5 128 L 85 126.5 L 85.5 124 L 87.5 125 L 86 122.5 L 87 121.5 L 87.5 120 L 88 121.5 L 87.5 123 L 90 124.5 L 88 125.5 L 91 126.5 L 89.5 129 L 91.5 130 L 94 128.5 Q 90.5 127 93 125.5 L 94 123.5 L 91.5 122 Q 90.3 124.2 89 121.5 Q 91.5 120 88 118.5 L 87 115.5 L 87 113.5 L 86.5 112 Q 84.7 114.5 84.5 111 Z M 91 119 L 92 121 Q 93 118 91 119 Z M 97 145 L 95 147 L 97 147 L 97 145 Z M 91 147 L 91 149 L 93 148 L 91 147 Z " /><path fill="rgb(252,216,1)" stroke="rgb(252,216,1)" stroke-width="1" opacity="1" d="M 38 116 L 44 119.5 L 41.5 118 L 39 119.5 L 40 121.5 L 39 121.5 L 38.5 120 L 37 120.5 Q 40.5 119 38 117.5 L 38 116 Z " /><path fill="rgb(252,216,1)" stroke="rgb(252,216,1)" stroke-width="1" opacity="1" d="M 152.5 116 Q 154.3 119.1 156 117.5 L 153 121.5 L 156 122 L 155.5 124 L 154 123.5 L 155 126.5 L 155 128.5 L 154 130.5 L 157 131.5 L 158 133.5 L 156.5 133 Q 154.3 132.3 155 134.5 L 154 135.5 L 157 138.5 L 158 140.5 L 156.5 140 Q 151 140.5 149 137.5 L 150.5 135 L 153.5 137 L 148.5 131 L 146 130.5 L 148 130 Q 147 127 150 128 L 149 130.5 Q 150.7 134.8 152.5 132 L 154 131.5 L 154 129.5 L 153.5 128 L 152.5 129 L 148.5 125 L 146 126.5 L 147 124 L 152.5 128 L 153.5 126 L 151 124.5 Q 154.5 123 152 121.5 L 153 117.5 L 152.5 116 Z M 153 133 L 154 135 Q 155 132 153 133 Z " /><path fill="rgb(252,216,1)" stroke="rgb(252,216,1)" stroke-width="1" opacity="1" d="M 46.5 119 L 48.5 121 L 51 119.5 L 50 120.5 L 51.5 123 L 45 127.5 L 48 128.5 L 45 129.5 L 44.5 131 L 44 129.5 L 45 128.5 L 43.5 126 L 46 124.5 L 44 121.5 L 46.5 119 Z M 47 120 L 45 122 L 48 125 L 49 123 L 48 123 L 47 120 Z " /><path fill="rgb(252,216,1)" stroke="rgb(252,216,1)" stroke-width="1" opacity="1" d="M 150.5 121 L 151 123 L 148 122.5 L 150.5 121 Z " /><path fill="rgb(252,216,1)" stroke="rgb(252,216,1)" stroke-width="1" opacity="1" d="M 83 122 L 85 122.5 L 83.5 125 L 83 122 Z " /><path fill="rgb(252,216,1)" stroke="rgb(252,216,1)" stroke-width="1" opacity="1" d="M 39.5 123 L 40.5 125 L 42.5 124 L 42.5 125 L 40.5 126 L 39.5 123 Z " /><path fill="rgb(252,216,1)" stroke="rgb(252,216,1)" stroke-width="1" opacity="1" d="M 142.5 123 L 146 128.5 L 144.5 128 L 141.5 129 L 142.5 126 L 141 125.5 L 142.5 123 Z " /><path fill="rgb(252,216,1)" stroke="rgb(252,216,1)" stroke-width="1" opacity="1" d="M 52.5 124 L 54.5 127 L 52 126 L 52.5 124 Z " /><path fill="rgb(252,216,1)" stroke="rgb(252,216,1)" stroke-width="1" opacity="1" d="M 82 126 L 84 126.5 L 83.5 128 L 86 129.5 L 83.5 133 L 83 131.5 L 84.5 129 L 82.5 130 L 82 127.5 L 82 126 Z " /><path fill="rgb(252,216,1)" stroke="rgb(252,216,1)" stroke-width="1" opacity="1" d="M 95.5 126 L 98 126.5 L 95.5 127 L 95.5 126 Z " /><path fill="rgb(252,216,1)" stroke="rgb(252,216,1)" stroke-width="1" opacity="1" d="M 35.5 127 L 38.5 129 L 41.5 127 L 41.5 129 L 43 129.5 L 42.5 132 L 41 131.5 L 42 133.5 L 38.5 133 Q 35.2 131.9 36 134.5 L 37.5 137 L 36 137.5 L 39 138 L 39.5 136 L 40 138 L 42 137.5 L 41 135.5 L 42 135.5 L 43 137.5 L 41.5 139 L 35 139 L 34 136.5 L 36 136.5 L 34 133.5 L 36 132.5 L 35 129.5 L 35.5 127 Z M 39 129 Q 38 132 41 131 Q 42 128 39 129 Z " /><path fill="rgb(252,216,1)" stroke="rgb(252,216,1)" stroke-width="1" opacity="1" d="M 106.5 127 L 110 129.5 L 109 131.5 L 110.5 134 L 107.5 132 L 103.5 132 L 101 131.5 L 104.5 130 L 108 130.5 L 106.5 127 Z " /><path fill="rgb(252,216,1)" stroke="rgb(252,216,1)" stroke-width="1" opacity="1" d="M 122.5 127 L 123.5 129 Q 120.7 129.7 122.5 127 Z " /><path fill="rgb(252,216,1)" stroke="rgb(252,216,1)" stroke-width="1" opacity="1" d="M 96.5 128 L 97.5 130 Q 94.7 130.7 96.5 128 Z " /><path fill="rgb(252,216,1)" stroke="rgb(252,216,1)" stroke-width="1" opacity="1" d="M 111.5 131 L 113.5 134 L 115 133.5 Q 115.8 135.8 113.5 135 L 111.5 136 L 112 134.5 L 111.5 131 Z " /><path fill="rgb(252,216,1)" stroke="rgb(252,216,1)" stroke-width="1" opacity="1" d="M 44.5 132 L 43.5 134 L 44.5 132 Z " /><path fill="rgb(252,216,1)" stroke="rgb(252,216,1)" stroke-width="1" opacity="1" d="M 106.5 134 L 109 134.5 L 106.5 135 L 106.5 134 Z " /><path fill="rgb(252,216,1)" stroke="rgb(252,216,1)" stroke-width="1" opacity="1" d="M 116.5 135 L 119 135.5 L 118.5 140 L 114.5 141 L 112.5 141 L 111 141.5 L 114.5 143 L 116.5 141 L 118 141.5 L 116 142.5 L 122.5 153 L 125 153 Q 123.9 155.7 126.5 155 L 129 155.5 L 127.5 158 L 127 156 L 122.5 154 L 122 156 Q 124.7 154.9 124 157.5 Q 126.5 159 123 160.5 L 124.5 163 L 122 161.5 L 123 163.5 Q 121 167 119 162.5 L 122 161 L 119.5 157 L 117 157.5 L 118 162 L 113 164 Q 114.3 167 110.5 166 L 108.5 167 L 108.5 166 L 110 165.5 L 105.5 162 Q 104.3 164.3 103 161.5 L 104 158 L 102 158.5 L 102.5 160 L 100.5 161 L 101 159.5 L 102 157.5 L 102 155.5 L 102.5 154 L 104 154.5 L 101 150.5 L 102.5 150 L 106 151.5 L 108.5 155 L 109.5 153 L 111.5 156 L 112.5 154 L 111 153.5 L 113 152.5 L 111.5 151 L 108.5 152 L 107 151.5 L 107.5 150 L 106 149.5 L 108 149 L 108.5 147 L 109.5 149 Q 112.5 147.5 109.5 146 L 107 145.5 Q 109.3 144.3 106.5 143 L 102.5 144 L 101 143.5 L 100 145.5 L 103.5 148 L 104 146 L 107 147.5 L 105 147.5 Q 105.8 149.8 103.5 149 L 101.5 148 L 99.5 149 L 99.5 148 L 101 147.5 L 99 145.5 L 99.5 143 L 101 142.5 L 98 141.5 L 101 140 L 101.5 142 L 102.5 140 L 103.5 142 L 107 140.5 L 105 139.5 Q 106.3 136.8 107.5 139 L 109 138.5 L 106 136.5 L 107.5 136 L 110 136.5 L 110.5 139 L 112 138.5 L 111.5 140 L 114 138.5 L 116.5 135 Z M 110 141 L 108 144 L 111 144 L 110 141 Z M 114 143 L 114 146 L 114 147 L 112 146 L 111 149 L 113 149 Q 115 150 113 152 L 115 152 Q 116 156 118 153 L 116 152 L 115 149 L 117 146 L 114 143 Z M 116 147 L 116 149 L 118 148 L 116 147 Z M 120 149 L 117 151 L 120 152 L 120 149 Z M 119 153 L 120 155 L 121 155 L 119 153 Z M 105 155 L 102 157 L 105 158 L 105 157 L 106 157 L 105 160 L 106 162 L 110 163 Q 112 167 114 163 Q 116 164 115 161 L 117 161 L 117 160 L 115 160 L 116 158 Q 117 155 119 157 L 119 155 L 116 156 L 114 155 L 112 158 L 114 157 L 115 158 L 113 159 L 114 161 L 111 162 L 109 162 L 111 161 L 112 159 L 111 156 Q 107 154 108 158 L 107 158 L 108 156 L 105 155 Z M 122 157 L 123 159 L 124 159 L 122 157 Z " /><path fill="rgb(252,216,1)" stroke="rgb(252,216,1)" stroke-width="1" opacity="1" d="M 156.5 135 L 157.5 137 L 156.5 135 Z " /><path fill="rgb(252,216,1)" stroke="rgb(252,216,1)" stroke-width="1" opacity="1" d="M 32.5 138 L 33 140.5 L 32 140.5 L 32.5 138 Z " /><path fill="rgb(252,216,1)" stroke="rgb(252,216,1)" stroke-width="1" opacity="1" d="M 41.5 140 L 42 142 L 37.5 143 L 36.5 141 L 39.5 142 L 41.5 140 Z " /><path fill="rgb(252,216,1)" stroke="rgb(252,216,1)" stroke-width="1" opacity="1" d="M 151.5 140 L 152 143 L 149.5 144 L 149 141.5 L 151 141.5 L 151.5 140 Z " /><path fill="rgb(252,216,1)" stroke="rgb(252,216,1)" stroke-width="1" opacity="1" d="M 154.5 141 L 155.5 143 Q 157.2 140.3 159 144.5 L 158 146.5 L 159 148.5 L 157 147.5 L 156.5 145 L 156 148 L 153 148.5 L 155 149.5 L 153.5 150 L 151.5 146 L 150 146.5 L 152.5 144 L 155 145.5 L 154.5 141 Z " /><path fill="rgb(252,216,1)" stroke="rgb(252,216,1)" stroke-width="1" opacity="1" d="M 41.5 143 L 40.5 147 L 37.5 146 L 35 144.5 L 36.5 144 L 39.5 145 L 41.5 143 Z " /><path fill="rgb(252,216,1)" stroke="rgb(252,216,1)" stroke-width="1" opacity="1" d="M 36.5 147 L 36 148.5 L 35 150.5 L 37 154 L 35 154.5 L 36 156.5 L 35 156.5 L 34.5 155 L 32 155.5 L 34 158.5 L 34.5 160 L 30 154.5 L 33 153.5 L 32 151.5 L 33 149 L 36.5 147 Z " /><path fill="rgb(252,216,1)" stroke="rgb(252,216,1)" stroke-width="1" opacity="1" d="M 41.5 148 L 46 151.5 L 43 152.5 L 44 156 L 41 155.5 L 43 154.5 L 42 152 L 38 153 Q 36.5 149.3 39.5 150 L 42 151 L 41.5 148 Z " /><path fill="rgb(252,216,1)" stroke="rgb(252,216,1)" stroke-width="1" opacity="1" d="M 147.5 149 L 150.5 151 L 152 150.5 L 152 152.5 L 152.5 154 L 154.5 151 L 157.5 155 L 159 153.5 L 158.5 151 L 156 149.5 L 157.5 150 L 160 151.5 L 159 154.5 L 160.5 157 L 156.5 157 L 152.5 155 L 150.5 156 L 150.5 155 L 152 154.5 L 149.5 154 L 144.5 157 L 144.5 156 L 146 155.5 L 145 153.5 L 149 151.5 L 147.5 149 Z M 155 153 L 153 155 L 157 156 L 155 153 Z " /><path fill="rgb(252,216,1)" stroke="rgb(252,216,1)" stroke-width="1" opacity="1" d="M 67.5 151 L 71 155.5 L 69 155.5 L 70 157.5 L 68.5 160 L 70 160.5 Q 67.8 161.7 70.5 163 L 72 162.5 L 71 157.5 L 72 154.5 L 71 152.5 L 72 152.5 L 73.5 156 L 75 155.5 L 73 158.5 L 77 160.5 L 72 159.5 L 73 162.5 L 69 164 L 68 166.5 L 70 167.5 L 70.5 165 L 71 167.5 L 68 169.5 L 70.5 170 L 72 169.5 L 70.5 174 L 68.5 171 L 65 173.5 L 68 174.5 Q 64.3 176.3 67.5 178 L 69 178.5 L 65 179 Q 66.1 176.3 63.5 177 L 63.5 179 Q 61.3 178.3 62 174.5 L 63 174.5 L 63.5 176 L 66.5 171 L 68 170.5 Q 65.7 166.7 63.5 172 L 61 169.5 L 60.5 168 L 59 168.5 L 60 166.5 L 59.5 165 L 61.5 164 L 63 167 L 69 163.5 L 68.5 162 L 65.5 164 L 60 161.5 L 59.5 163 L 59 159 Q 63.1 160.3 62 157 L 60 156.5 L 62 155.5 L 61.5 154 L 64 155 L 65 157.5 L 61 160.5 L 64 162.5 L 63 160.5 L 65.5 159 L 65.5 160 L 64 160.5 L 65 163 Q 68.3 164.3 67 159.5 L 68 157.5 L 66.5 155 L 65 155.5 Q 69.3 153.2 67.5 151 Z M 66 167 L 62 169 L 64 169 Q 65 172 67 168 L 66 167 Z " /><path fill="rgb(252,216,1)" stroke="rgb(252,216,1)" stroke-width="1" opacity="1" d="M 45.5 153 L 52 155.5 L 50.5 158 L 48.5 155 L 47 155.5 L 47.5 157 L 45 155.5 L 47 154.5 L 45.5 153 Z " /><path fill="rgb(252,216,1)" stroke="rgb(252,216,1)" stroke-width="1" opacity="1" d="M 39.5 154 L 40 156 L 37.5 157 L 39.5 154 Z " /><path fill="rgb(252,216,1)" stroke="rgb(252,216,1)" stroke-width="1" opacity="1" d="M 142.5 154 L 144 158.5 L 142.5 158 L 138.5 160 L 136 159.5 Q 137.7 155.3 139.5 158 L 142 156.5 L 142.5 154 Z " /><path fill="rgb(252,216,1)" stroke="rgb(252,216,1)" stroke-width="1" opacity="1" d="M 53.5 156 L 55.5 156 Q 57.8 155.3 57 157.5 L 58 159.5 L 57 159.5 L 56.5 158 Q 54.8 161.8 53 158.5 L 53.5 156 Z " /><path fill="rgb(252,216,1)" stroke="rgb(252,216,1)" stroke-width="1" opacity="1" d="M 134.5 156 L 137 156.5 L 135.5 158 L 133 157.5 L 134.5 156 Z " /><path fill="rgb(252,216,1)" stroke="rgb(252,216,1)" stroke-width="1" opacity="1" d="M 99.5 158 L 99 159.5 Q 100.1 162.8 97.5 162 L 94.5 161 L 92 162.5 L 95.5 159 L 97.5 159 L 99.5 158 Z " /><path fill="rgb(252,216,1)" stroke="rgb(252,216,1)" stroke-width="1" opacity="1" d="M 129.5 158 L 133 159.5 L 131 159.5 L 133 162.5 L 132.5 164 L 134 164.5 L 132.5 165 L 130 163.5 L 132 162.5 L 130.5 161 Q 129 164.5 127.5 162 Q 124.9 162.8 126 159.5 Q 127.8 161.1 129.5 158 Z M 130 159 L 128 162 L 130 161 L 130 159 Z " /><path fill="rgb(252,216,1)" stroke="rgb(252,216,1)" stroke-width="1" opacity="1" d="M 159.5 158 L 162 159.5 L 160.5 160 L 159.5 158 Z " /><path fill="rgb(252,216,1)" stroke="rgb(252,216,1)" stroke-width="1" opacity="1" d="M 31.5 159 L 31.5 162 Q 28.5 160.5 31.5 159 Z " /><path fill="rgb(252,216,1)" stroke="rgb(252,216,1)" stroke-width="1" opacity="1" d="M 75.5 162 L 75.5 165 Q 72.5 163.5 75.5 162 Z " /><path fill="rgb(252,216,1)" stroke="rgb(252,216,1)" stroke-width="1" opacity="1" d="M 100.5 162 L 103 163.5 L 102 165.5 L 103.5 165 L 105.5 164 L 105 165.5 Q 105.8 168.1 102.5 167 L 101 167.5 L 101 165.5 L 102 163.5 L 100.5 162 Z " /><path fill="rgb(252,216,1)" stroke="rgb(252,216,1)" stroke-width="1" opacity="1" d="M 117.5 163 L 116.5 165 L 117.5 163 Z " /><path fill="rgb(252,216,1)" stroke="rgb(252,216,1)" stroke-width="1" opacity="1" d="M 126.5 163 L 126.5 165 L 128.5 164 L 128.5 166 L 130.5 165 L 133 168.5 L 131.5 168 L 129 169.5 L 129 171.5 L 130 175 L 126 176.5 Q 128.3 177.8 125.5 179 L 125 176 L 121 176.5 L 124 177.5 L 121 179.5 L 122.5 180 L 124 179.5 L 124 181.5 L 124.5 183 L 125 180 L 128 181.5 L 127 182.5 Q 130.1 184.3 128.5 186 L 132.5 185 L 135 185.5 L 134 188.5 L 136.5 192 Q 137.7 189.7 139 192.5 L 136 193.5 L 135 195.5 L 135.5 197 Q 133.5 193 131.5 197 Q 129.3 197.8 130 195.5 L 130 191.5 L 130.5 189 L 132.5 192 L 134 189.5 Q 132.3 185.3 130.5 188 L 126.5 185 L 125.5 188 L 123.5 187 L 122 188.5 L 123.5 191 L 120.5 187 L 119 187.5 L 119.5 185 L 120.5 186 L 123 184.5 L 122.5 186 L 125 185.5 L 122.5 182 L 117 185.5 L 117.5 187 L 115 185.5 L 115.5 184 L 112 186.5 L 111 188.5 L 113 189.5 L 108.5 191 L 108.5 190 L 111 189.5 L 111 187.5 L 110 185.5 L 113 184.5 L 112.5 182 L 111.5 184 L 111 181 L 113.5 182 L 118 180.5 L 117 177.5 L 117 175.5 Q 117.8 173.3 115.5 174 L 116 175.5 L 115.5 177 L 115 175 L 113 174.5 L 117 173 L 117.5 171 L 118.5 173 L 120 171.5 Q 116.3 169.8 119.5 168 L 125.5 171 Q 130 169 126.5 167 Q 125 170.5 123.5 168 Q 120.9 168.7 122 166 L 126.5 163 Z M 121 170 L 122 172 L 124 172 L 121 170 Z M 127 171 L 126 173 L 125 172 L 124 174 L 127 175 L 127 174 Q 129 172 127 171 Z M 122 173 Q 120 176 118 175 L 120 177 L 124 175 L 122 173 Z M 118 178 L 118 180 L 120 179 L 118 178 Z M 119 182 L 119 183 L 121 183 L 119 182 Z M 125 183 L 125 185 L 127 184 L 125 183 Z M 134 192 L 132 193 L 131 195 L 135 194 L 134 192 Z " /><path fill="rgb(252,216,1)" stroke="rgb(252,216,1)" stroke-width="1" opacity="1" d="M 75.5 171 L 79 173.5 L 77 176.5 L 77 178.5 L 77.5 180 L 79.5 178 L 82 178.5 L 79 179.5 L 81 182.5 L 79 186.5 L 80 189.5 L 79 189.5 L 78.5 187 L 76 190.5 L 78 191.5 L 77.5 193 L 79.5 192 L 79 193.5 L 80.5 196 Q 83.2 194.8 81 193.5 L 83 190.5 L 81 190.5 L 82.5 187 Q 80.8 189 84.5 191 L 86 190.5 L 83 192.5 L 84 195 L 86 195.5 L 84 196.5 L 86.5 198 L 89 197 L 87.5 200 L 84.5 198 L 83.5 195 L 81 196.5 Q 83.5 198 80 199.5 L 81.5 201 L 83 200.5 L 82.5 199 L 85 200 Q 86.1 202.7 83.5 202 L 79.5 204 L 78 203.5 L 80 202.5 L 78 201.5 L 80 200.5 Q 78.3 196.2 76.5 199 L 72.5 198 L 70 199.5 L 72 195.5 L 71.5 194 L 74 195 Q 72.5 191.3 75.5 192 L 75.5 191 L 73.5 190 L 71 191 L 70.5 193 L 69.5 191 L 67.5 192 Q 66.3 189.7 65 192.5 L 66 194.5 L 65 194.5 L 64 192.5 L 66 189.5 L 64 189 L 61.5 194 L 61 192.5 L 61.5 190 L 64 188.5 L 65.5 186 Q 63.9 187.8 67 189.5 L 67.5 191 L 68.5 189 Q 70 192.5 71.5 190 L 73 189.5 L 70 187.5 Q 72.3 186.3 69.5 185 L 67.5 184 L 65.5 184 L 62.5 187 L 59 185.5 L 61 184.5 Q 58.7 183.3 61.5 182 L 64.5 184 L 69 182.5 Q 67.8 179.8 66.5 182 L 64 181.5 L 67.5 180 L 70.5 181 L 72 179.5 L 70 178.5 L 72 177.5 L 70.5 175 L 74.5 176 L 78 174.5 Q 78.8 172.3 76.5 173 L 74 172.5 L 75.5 171 Z M 73 176 L 76 180 L 76 177 L 75 177 L 73 176 Z M 74 179 L 72 181 L 74 181 L 77 186 L 74 185 L 75 188 L 73 189 L 76 190 L 79 184 L 76 183 L 77 181 Q 75 182 74 179 Z M 72 181 L 70 183 L 72 184 L 71 184 L 72 186 Q 77 184 72 181 Z M 73 186 L 71 188 L 73 188 L 73 186 Z M 76 193 L 77 195 Q 78 192 76 193 Z M 75 195 L 75 197 Q 74 199 77 198 L 76 197 Q 77 194 75 195 Z M 80 196 L 78 198 L 80 199 L 80 196 Z " /><path fill="rgb(252,216,1)" stroke="rgb(252,216,1)" stroke-width="1" opacity="1" d="M 112.5 178 L 113.5 180 L 112.5 178 Z " /><path fill="rgb(252,216,1)" stroke="rgb(252,216,1)" stroke-width="1" opacity="1" d="M 129 180 L 131 180.5 L 129.5 183 L 129 180 Z " /><path fill="rgb(252,216,1)" stroke="rgb(252,216,1)" stroke-width="1" opacity="1" d="M 58.5 188 Q 61.5 187.2 60 191 L 58 191.5 L 60 195 Q 62.7 193.9 62 196.5 L 60.5 196 L 56.5 197 L 56 194.5 L 58 192.5 L 57 191.5 Q 60.1 189.7 58.5 188 Z " /><path fill="rgb(252,216,1)" stroke="rgb(252,216,1)" stroke-width="1" opacity="1" d="M 115.5 188 L 115.5 190 L 118.5 189 L 117.5 191 L 114 189.5 L 115.5 188 Z " /><path fill="rgb(252,216,1)" stroke="rgb(252,216,1)" stroke-width="1" opacity="1" d="M 120.5 190 L 122 192.5 L 119.5 194 L 118 193.5 L 119 197.5 L 117.5 199 L 114 197.5 L 118 195.5 L 115 193.5 L 116 195.5 L 112 197.5 L 113 200 L 116 201.5 L 114.5 202 L 111.5 201 Q 108.2 199.9 109 202.5 L 107 201.5 L 109 201 L 111 197.5 L 109.5 197 L 107.5 200 L 105.5 199 L 105.5 201 L 101.5 201 L 94 198.5 L 97.5 198 L 99.5 200 L 106 194.5 L 105 197 L 102 198.5 L 103.5 199 L 106.5 197 Q 108 199.5 109.5 196 Q 111.8 196.8 111 194.5 L 109.5 195 L 107 193.5 L 108.5 193 L 109.5 194 L 112.5 191 L 116.5 193 L 121 191.5 L 120.5 190 Z M 113 192 L 112 196 L 113 196 L 113 192 Z " /><path fill="rgb(252,216,1)" stroke="rgb(252,216,1)" stroke-width="1" opacity="1" d="M 125.5 190 L 127.5 190 L 129 190.5 L 126.5 192 L 125.5 190 Z " /><path fill="rgb(252,216,1)" stroke="rgb(252,216,1)" stroke-width="1" opacity="1" d="M 53.5 191 L 53.5 193 L 55 193.5 L 52.5 195 L 52 192.5 L 53.5 191 Z " /><path fill="rgb(252,216,1)" stroke="rgb(252,216,1)" stroke-width="1" opacity="1" d="M 123.5 192 L 126.5 194 L 128 193.5 Q 126.8 196.2 125.5 194 L 123.5 192 Z " /><path fill="rgb(252,216,1)" stroke="rgb(252,216,1)" stroke-width="1" opacity="1" d="M 69.5 194 L 70 195.5 L 69.5 198 L 67.5 198 L 63.5 200 L 63.5 197 L 65.5 197 L 68 196.5 L 67.5 195 L 69 195.5 L 69.5 194 Z " /><path fill="rgb(252,216,1)" stroke="rgb(252,216,1)" stroke-width="1" opacity="1" d="M 120.5 195 L 123.5 197 L 125 196.5 L 124.5 198 L 126 198.5 L 125.5 201 L 121 200 L 122 197.5 L 120.5 195 Z " /><path fill="rgb(252,216,1)" stroke="rgb(252,216,1)" stroke-width="1" opacity="1" d="M 127.5 196 L 128.5 198 Q 125.7 198.7 127.5 196 Z " /><path fill="rgb(252,216,1)" stroke="rgb(252,216,1)" stroke-width="1" opacity="1" d="M 90.5 198 L 91.5 200 Q 89.3 199.3 90 201.5 L 88.5 203 L 86 202.5 L 89 201.5 L 90.5 198 Z " /><path fill="rgb(252,216,1)" stroke="rgb(252,216,1)" stroke-width="1" opacity="1" d="M 93.5 200 L 96.5 201 L 100 202 Q 101.3 205 97.5 204 L 94.5 202 L 90 203.5 L 91 201 L 93.5 200 Z " /><path fill="rgb(252,216,1)" stroke="rgb(252,216,1)" stroke-width="1" opacity="1" d="M 117.5 200 L 120 200.5 L 117.5 201 L 117.5 200 Z " /><path fill="rgb(252,216,1)" stroke="rgb(252,216,1)" stroke-width="1" opacity="1" d="M 101.5 202 Q 103 205.1 108 204.5 L 103.5 205 L 101.5 202 Z " /><path fill="rgb(252,216,1)" stroke="rgb(252,216,1)" stroke-width="1" opacity="1" d="M 84.5 204 L 89 204.5 L 84.5 205 L 84.5 204 Z " /><path fill="rgb(242,177,189)" stroke="rgb(242,177,189)" stroke-width="1" opacity="1" d="M 59.5 131 Q 65.8 129.8 67 133.5 L 68 137.5 L 64.5 142 L 61.5 143 L 57 140.5 L 56 135.5 L 59.5 131 Z " /><path fill="rgb(242,177,189)" stroke="rgb(242,177,189)" stroke-width="1" opacity="1" d="M 127.5 131 Q 133.8 129.8 135 133.5 L 136 138.5 L 133.5 142 L 129.5 143 L 125 139.5 L 124 135.5 L 127.5 131 Z " /><path fill="rgb(242,177,189)" stroke="rgb(242,177,189)" stroke-width="1" opacity="1" d="M 95.5 168 L 102 171.5 L 100.5 172 L 95.5 169 L 90.5 172 L 90.5 171 L 95.5 168 Z " /><path fill="rgb(242,177,189)" stroke="rgb(242,177,189)" stroke-width="1" opacity="1" d="M 84.5 172 L 89 172.5 L 84.5 173 L 84.5 172 Z " /><path fill="rgb(242,177,189)" stroke="rgb(242,177,189)" stroke-width="1" opacity="1" d="M 103.5 172 L 108 172.5 L 103.5 173 L 103.5 172 Z " /><path fill="rgb(242,177,189)" stroke="rgb(242,177,189)" stroke-width="1" opacity="1" d="M 93.5 173 Q 102.4 172.1 105.5 177 L 107 176.5 Q 106.9 189.9 98.5 195 L 93.5 195 L 89 190.5 Q 85 185.5 85 176.5 Q 86.8 178.1 88.5 175 L 93.5 173 Z " /><path fill="rgb(5,3,1)" stroke="rgb(5,3,1)" stroke-width="1" opacity="0.984313725490196" d="M 8 54 Q 44.7 54.5 61 76.5 L 65.5 83 L 68.5 81 L 80.5 78 L 104.5 77 L 127.5 82 L 140.5 67 Q 150.1 59.6 163.5 56 L 173.5 54 L 184 54 Q 184 86.7 166.5 103 L 158 108 L 163 126.5 L 164 145.5 L 169 163.5 L 169 175.5 Q 164.7 188.7 154.5 196 Q 142.5 206 125.5 211 L 104.5 215 L 87.5 215 L 86.5 214 L 74.5 213 L 55.5 207 Q 39.6 199.9 29 187.5 L 23 175.5 L 23 163.5 L 28 145.5 L 28 132.5 L 30 121.5 L 34 111.5 L 34 108 L 30.5 107 L 23 100.5 Q 7.9 84.3 8 54 Z M 34 63 L 29 75 L 28 87 L 27 88 L 28 100 L 38 106 L 40 103 L 44 100 L 35 119 L 32 134 L 32 147 L 27 164 L 28 167 L 29 165 Q 33 159 41 158 L 46 158 L 53 161 Q 58 164 60 172 Q 61 180 58 185 Q 53 192 41 194 L 62 205 L 76 209 L 89 210 L 90 211 L 112 210 L 125 207 Q 140 202 151 194 L 140 190 Q 134 187 132 180 Q 131 171 134 167 Q 138 160 147 158 L 152 158 L 160 161 L 163 166 L 165 167 L 160 147 L 160 134 L 157 119 L 152 107 L 148 102 Q 147 99 150 100 L 155 106 L 162 102 L 164 100 L 165 95 L 163 75 L 158 63 L 153 64 L 142 71 L 130 86 L 137 89 L 139 92 L 120 84 L 104 81 Q 73 80 56 92 L 53 92 L 62 86 L 56 77 Q 48 66 34 63 Z M 43 160 L 34 163 L 28 172 L 28 178 L 33 186 L 39 190 Q 48 192 52 188 L 58 179 Q 59 171 56 168 L 52 163 L 43 160 Z M 150 160 L 141 163 Q 136 166 134 173 Q 133 181 137 185 L 145 190 Q 152 192 156 189 L 164 178 Q 165 169 161 166 L 155 161 L 150 160 Z " /><path fill="rgb(5,3,1)" stroke="rgb(5,3,1)" stroke-width="1" opacity="0.984313725490196" d="M 54.5 127 Q 66.6 125.4 70 132.5 Q 72.7 135.8 72 142.5 Q 71.1 149.1 66.5 152 Q 62.5 155.5 53.5 154 L 46 148.5 Q 43.3 145.2 44 138.5 L 48.5 130 L 54.5 127 Z M 62 130 L 57 132 L 56 135 L 57 141 L 61 143 L 66 142 Q 69 140 68 135 L 62 130 Z " /><path fill="rgb(5,3,1)" stroke="rgb(5,3,1)" stroke-width="1" opacity="0.984313725490196" d="M 128.5 127 L 137.5 127 L 146 133.5 Q 148.3 138.3 147 146.5 L 142.5 152 Q 138.5 155.5 129.5 154 L 123 149.5 L 121 146.5 L 120 137.5 Q 121.5 131 126.5 128 L 128.5 127 Z M 130 130 L 124 135 L 125 141 L 129 143 L 134 142 L 136 139 L 135 132 L 130 130 Z " /><path fill="rgb(5,3,1)" stroke="rgb(5,3,1)" stroke-width="1" opacity="0.984313725490196" d="M 92.5 151 Q 99.3 149.3 101 152.5 L 97.5 157 Q 91.8 157.8 91 153.5 L 92.5 151 Z " /><path fill="rgb(5,3,1)" stroke="rgb(5,3,1)" stroke-width="1" opacity="0.984313725490196" d="M 73 164 Q 75.7 162.9 75 165.5 Q 78.3 171.2 89.5 169 L 96.5 164 Q 99.7 171.3 112.5 169 L 117 165.5 Q 116.3 162.9 119 164 Q 119.8 168.7 115.5 170 L 111 171 L 108 186.5 Q 105.8 193.3 100.5 197 L 93.5 198 L 87 192.5 L 83 183.5 L 81 171 Q 75.4 170.9 73 166.5 L 73 164 Z M 96 167 L 91 171 L 84 172 Q 84 184 89 192 L 95 196 L 100 195 Q 108 188 108 172 Q 100 172 96 167 Z " /></svg>